<svg width="187" height="207" viewBox="0 0 187 207" fill="none" xmlns="http://www.w3.org/2000/svg">
<path d="M0.263999 157.103C0.263999 152.071 1.26133 147.674 3.256 143.911C5.25066 140.148 8.06133 137.247 11.688 135.207C15.2693 133.122 19.4173 132.079 24.132 132.079C28.8013 132.079 32.9493 133.122 36.576 135.207C40.2027 137.247 43.0133 140.171 45.008 143.979C47.0027 147.742 48 152.116 48 157.103V174.987H0.263999L0.263999 157.103ZM37.936 157.851C37.936 153.454 36.7347 150.031 34.332 147.583C31.9293 145.135 28.5293 143.911 24.132 143.911C19.7347 143.911 16.312 145.135 13.864 147.583C11.416 150.031 10.192 153.454 10.192 157.851V163.359H37.936V157.851Z" fill="#10B981"/>
<path d="M81.0594 170.759C77.4015 173.156 73.8394 174.51 70.3732 174.821C66.9528 175.101 63.7796 174.468 60.8536 172.922C57.9277 171.375 55.4233 169.029 53.3403 165.884C51.348 162.876 50.3291 159.655 50.2838 156.221C50.2385 152.787 51.0511 149.509 52.7216 146.389C54.3619 143.222 56.7824 140.591 59.9831 138.493C64.2812 135.677 68.6322 134.623 73.0359 135.332C77.4553 135.966 81.6311 138.36 85.5634 142.515L68.2343 163.87C70.8144 164.597 73.3619 164.137 75.8768 162.489C76.9284 161.8 77.8136 160.959 78.5323 159.965C79.2968 158.941 79.9629 157.818 80.5307 156.597L89.4923 160.92C88.4957 162.88 87.2411 164.748 85.7287 166.523C84.2619 168.269 82.7055 169.681 81.0594 170.759ZM62.8506 159.751L73.076 146.678C71.9098 145.808 70.5977 145.263 69.1399 145.042C67.6518 144.775 65.9933 145.241 64.1643 146.439C62.0153 147.848 60.7836 149.7 60.4693 151.998C60.155 154.295 60.8129 156.674 62.443 159.135C62.5638 159.318 62.6996 159.523 62.8506 159.751Z" fill="#10B981"/>
<path d="M91.5398 118.981H101.48V175H91.5398V118.981Z" fill="#10B981"/>
<path d="M114.377 126.872H104.838V118.973H114.377V126.872ZM114.377 175H104.838V133.001H114.377V175Z" fill="#10B981"/>
<path d="M131.568 175L141.743 133.01H155.228L142.631 175H131.568ZM128.823 175L116.226 133.01H129.711L139.886 175H128.823Z" fill="#10B981"/>
<path d="M168.067 175H157.369V133.033H159.956L163.482 138.01C165.206 136.442 167.166 135.241 169.36 134.405C171.554 133.543 173.827 133.112 176.178 133.112H185.622V143.77H176.178C175.055 143.77 173.997 143.979 173.004 144.397C172.011 144.815 171.149 145.39 170.418 146.121C169.686 146.852 169.112 147.714 168.694 148.707C168.276 149.7 168.067 150.758 168.067 151.881V175Z" fill="#10B981"/>
<circle cx="24.1291" cy="132" r="5.43603" fill="#10B981" stroke="white" stroke-width="2.85057"/>
<circle cx="12.0644" cy="173.5" r="5.43603" fill="#10B981" stroke="white" stroke-width="2.85057"/>
<circle cx="36.1936" cy="173.5" r="5.43603" fill="#10B981" stroke="white" stroke-width="2.85057"/>
<path d="M44.7646 61.204C44.7646 51.14 46.7592 42.3453 50.7486 34.82C54.7379 27.2946 60.3592 21.492 67.6126 17.412C74.7752 13.2413 83.0712 11.156 92.5006 11.156C101.839 11.156 110.135 13.2413 117.389 17.412C124.642 21.492 130.263 27.34 134.253 34.956C138.242 42.4813 140.237 51.2306 140.237 61.204V96.972H44.7646V61.204ZM120.109 62.7C120.109 53.9053 117.706 47.06 112.901 42.164C108.095 37.268 101.295 34.82 92.5006 34.82C83.7059 34.82 76.8606 37.268 71.9646 42.164C67.0686 47.06 64.6206 53.9053 64.6206 62.7V73.716H120.109V62.7Z" fill="#10B981"/>
<circle cx="92.9974" cy="14.5228" r="11.5228" fill="#10B981" stroke="white" stroke-width="6"/>
<circle cx="68.8683" cy="91.5" r="11.5228" fill="#10B981" stroke="white" stroke-width="6"/>
<circle cx="117.126" cy="91.5" r="11.5228" fill="#10B981" stroke="white" stroke-width="6"/>
</svg>
