<svg width="393" height="402" viewBox="0 0 393 402" fill="none" xmlns="http://www.w3.org/2000/svg">
<path d="M9.24585 260.533C1.3536 160.737 85.1609 62.3733 183.426 54.5886C281.691 46.8039 358.297 82.166 366.189 181.962C374.081 281.758 319.029 326.26 220.764 334.045C122.499 341.83 17.1381 360.328 9.24585 260.533Z" fill="#FBDF6A" fill-opacity="0.21"/>
<path d="M256.597 98.323C255.915 89.7003 263.156 81.2014 271.647 80.5288C280.137 79.8562 286.756 82.9116 287.438 91.5342C288.12 100.157 283.363 104.002 274.873 104.675C266.382 105.347 257.279 106.946 256.597 98.323Z" fill="#F89945"/>
<path d="M16.3633 68.0037C3.97735 57.2878 3.01017 35.5207 14.1802 22.5874C25.3502 9.65409 38.7982 4.42111 51.1842 15.1371C63.5701 25.853 61.9045 37.7976 50.7345 50.7309C39.5644 63.6642 28.7492 78.7197 16.3633 68.0037Z" fill="#FBDF6A" fill-opacity="0.21"/>
<path d="M378.513 320.564C390.09 332.151 385.731 357.68 369.609 373.817C353.486 389.953 332.085 392.318 325.099 385.631C318.112 378.944 318.445 359.854 334.567 343.718C350.689 327.581 366.936 308.977 378.513 320.564Z" fill="#FBDF6A" fill-opacity="0.21"/>
<path d="M65.1942 262.341C58.9458 268.012 48.0982 267.519 42.5484 261.394C36.9987 255.269 35.434 248.357 41.6824 242.685C47.9308 237.014 53.7158 238.376 59.2656 244.501C64.8154 250.626 71.4426 256.67 65.1942 262.341Z" fill="#FBD246"/>
<path d="M205.002 228.436C205.002 228.436 201.095 240.803 202.765 244.599C204.435 248.395 249.182 278.46 283.995 282.864C284.509 282.924 285.03 282.876 285.524 282.722C286.019 282.568 286.476 282.312 286.867 281.969C289.739 279.456 296.568 273.146 297.519 269.08C298.738 263.917 272.14 270.21 205.002 228.436Z" fill="#F89945"/>
<path d="M214.625 243.568C217.974 247.242 222.764 245.413 225.678 248.852C228.591 252.291 229.144 253.281 233.13 252.56C233.866 252.425 234.52 253.164 234.988 253.566C238.723 256.686 240.799 258.431 246.594 258.968C247.811 258.951 248.995 259.361 249.943 260.125C252.85 262.231 256.418 263.213 259.991 262.893C260.243 262.882 260.495 262.928 260.728 263.028C263.223 264.219 263.457 266.181 265.751 267.859C269.285 270.392 272.551 272.707 276.62 269.839C277.277 269.49 278.036 269.383 278.763 269.537C282.983 270.275 282.397 274.938 287.907 272.892C290.754 271.868 291.625 274.385 293.132 275.559C295.071 273.674 296.57 271.383 297.519 268.849C298.742 263.715 272.065 269.973 204.728 228.436C203.706 231.733 202.912 235.096 202.35 238.502C204.426 242.897 211.745 240.448 214.625 243.568Z" fill="#D77124"/>
<path opacity="0.55" d="M258.614 270.608C255.32 265.97 251.024 259.282 250.651 253.266C235.379 246.726 220.593 239.129 206.401 230.531C206.401 230.531 203.294 240.613 204.907 243.823C206.197 246.377 233.773 264.306 260.94 273.465C260.074 272.54 259.327 271.599 258.614 270.608Z" fill="#CD4200"/>
<path d="M255.324 224.364C255.324 224.364 215.408 210.963 211.703 214.314C207.998 217.664 205.252 226.257 207.156 229.892C209.059 233.527 247.442 251.367 253.522 254.717C276.831 267.582 295.341 265.807 296.385 266.125C297.429 266.443 307.467 258.805 304.25 249.541C301.252 240.847 262.128 228.033 255.324 224.364Z" fill="#BE5B2A"/>
<path d="M257.091 247.072C253.8 242.574 251.19 237.619 249.342 232.367C248.429 228.814 247.794 225.197 247.443 221.547C239.038 218.918 225.894 214.982 217.977 213.776C213.96 221.698 213.624 229.553 218.515 237.224C230.752 244.124 248.939 253.051 253.359 254.407C255.326 255.01 259.831 256.233 265.125 257.757C262.196 254.39 259.511 250.819 257.091 247.072Z" fill="#AE4D25"/>
<path d="M239.448 226.591C245.701 229.304 250.446 233.592 255.995 237.444C260.632 240.453 265.032 243.813 269.156 247.493C272.391 250.592 277.806 260.239 282.567 257.157C286.138 254.813 290.447 255.014 294.471 254.461C297.893 253.931 301.382 253.999 304.781 254.662C305.018 252.92 304.84 251.147 304.261 249.486C301.277 240.844 262.349 228.031 255.559 224.363C255.559 224.363 215.826 210.964 212.138 214.314C211.16 215.249 210.329 216.328 209.674 217.513C220.168 218.719 229.657 222.269 239.448 226.591Z" fill="#953E25"/>
<path d="M205.508 228.442C208.485 228.396 211.46 228.634 214.391 229.154C217.497 229.917 224.31 236.247 232.759 238.534C241.208 240.821 238.519 245.361 248.421 247.731C258.323 250.1 259.191 254.724 262.564 255.121C265.937 255.519 274.153 260.176 275.789 261.518C277.425 262.86 290.3 261.269 293.506 263.689C296.712 266.108 301.604 264.617 301.721 266.439C301.838 268.262 301.721 272.372 296.311 271.146C290.901 269.919 287.728 270.632 285.992 268.643C284.255 266.655 269.16 267.765 268.542 265.097C267.924 262.429 262.681 260.292 257.922 258.85C253.163 257.408 252.128 255.171 246.234 253.879C240.34 252.586 233.777 246.819 230.905 246.902C228.033 246.985 220.219 244.549 219.117 242.08C218.014 239.611 212.22 235.7 210.183 235.833C208.146 235.965 205.224 229.685 205.508 228.442Z" fill="#7BB027"/>
<path d="M211.629 227.039C211.629 226.905 211.629 226.754 211.813 226.938C212.36 226.81 212.923 226.764 213.484 226.804V226.653C214.169 226.77 214.937 226.653 215.589 226.653C215.581 226.614 215.581 226.574 215.589 226.535C216.977 227.062 218.394 227.511 219.832 227.879C221.119 228.568 222.439 230.433 220.735 231.407C219.949 231.844 219.064 231.542 218.73 232.617C218.659 233.031 218.677 233.455 218.784 233.861C218.891 234.267 219.083 234.645 219.348 234.969C220.948 236.236 222.766 237.199 224.711 237.808C226.198 238.329 229.238 239.488 230.224 237.59C230.625 237.103 229.923 236.347 230.091 235.708C230.218 235.357 230.443 235.049 230.739 234.823C231.035 234.596 231.39 234.461 231.761 234.431C232.586 234.762 233.451 234.977 234.334 235.07C235.359 235.588 236.434 235.999 237.542 236.296C238.453 236.757 239.334 237.273 240.182 237.842C240.616 238.396 241.034 239.085 241.502 239.522C241.969 239.959 242.103 241.488 241.301 242.16C240.817 242.563 240.098 242.294 239.63 242.395C239.05 242.57 238.49 242.806 237.96 243.101C237.889 243.386 237.879 243.683 237.931 243.973C237.983 244.263 238.095 244.538 238.26 244.781C238.411 244.932 238.511 244.949 238.628 245.234C240.817 245.99 242.588 247.822 244.843 248.342C244.966 248.471 245.119 248.568 245.288 248.623C245.457 248.679 245.637 248.692 245.812 248.662C246.296 248.968 246.827 249.195 247.383 249.334V249.166C247.435 249.244 247.511 249.303 247.6 249.334C247.616 249.305 247.624 249.274 247.624 249.241C247.624 249.209 247.616 249.177 247.6 249.149C249.27 249.149 247.082 246.897 246.881 246.343C246.163 244.428 248.552 244.663 249.772 244.932C252.846 245.755 257.073 247.502 258.794 250.459C258.651 251.026 258.297 251.515 257.806 251.828C257.315 252.14 256.724 252.252 256.154 252.139C255.803 252.307 255.068 252.442 254.617 252.677C254.617 252.677 254.45 253.046 254.383 253.147C254.536 253.405 254.722 253.642 254.934 253.853C255.318 254.575 256.605 254.878 257.123 255.13C257.219 255.198 257.327 255.249 257.44 255.281C257.715 255.474 258.012 255.632 258.326 255.751V255.583C258.76 255.802 259.662 255.919 259.996 255.281C261.333 254.542 260.23 251.635 262.72 252.66C264.14 253.231 265.71 254.827 267.231 253.92C268.333 254.088 269.169 254.038 269.971 254.844C270.472 257.297 268.434 257.398 266.629 258.204L266.445 258.305C266.445 258.507 266.295 258.708 266.228 258.91C266.161 259.111 266.312 259.128 266.328 259.246C266.345 259.203 266.345 259.155 266.328 259.111C266.512 259.817 267.999 260.96 268.567 260.792C269.887 262.32 272.51 260.304 273.88 259.599C274.781 259.054 275.747 258.625 276.754 258.322C277.873 258.07 278.525 258.675 279.46 258.624C280.59 259.422 281.434 260.565 281.866 261.884C282.184 262.976 281.866 264.74 283.303 265.042C286.962 267.629 291.356 261.682 295.115 261.564C295.361 261.536 295.61 261.558 295.848 261.627C296.085 261.697 296.307 261.813 296.5 261.969C296.692 262.126 296.852 262.319 296.97 262.538C297.088 262.757 297.162 262.997 297.187 263.244C297.32 264.202 296.619 265.025 296.736 265.949C296.773 266.175 296.856 266.391 296.98 266.584C297.103 266.776 297.265 266.941 297.454 267.069C297.643 267.196 297.857 267.283 298.081 267.325C298.305 267.366 298.535 267.361 298.757 267.31C299.81 267.092 300.144 266 300.996 265.546C301.482 265.263 302.045 265.147 302.602 265.214C303.16 265.282 303.68 265.529 304.085 265.919C304.49 266.31 304.758 266.822 304.849 267.379C304.94 267.936 304.848 268.507 304.588 269.007C303.927 269.919 303.083 270.68 302.11 271.242C301.137 271.803 300.057 272.152 298.941 272.266C297.778 273.098 296.374 273.518 294.948 273.459C294.574 273.395 294.22 273.244 293.914 273.019C293.607 272.795 293.357 272.501 293.182 272.163C293.007 271.824 292.913 271.45 292.906 271.068C292.899 270.687 292.981 270.309 293.144 269.965C293.578 268.705 294.731 266.991 293.678 265.899C293.415 265.711 293.118 265.578 292.803 265.506C292.488 265.434 292.163 265.425 291.845 265.479C291.526 265.534 291.222 265.651 290.949 265.824C290.676 265.997 290.44 266.222 290.253 266.487C289.453 267.307 288.763 268.227 288.198 269.225C287.568 270.067 286.8 270.795 285.926 271.376C285.675 271.376 285.659 271.376 285.558 271.494C282.601 271.494 280.764 268.52 281.131 265.479C280.663 264.252 280.062 261.598 278.308 263.799C277.8 264.576 277.411 265.426 277.155 266.319C276.678 267.061 276.254 267.836 275.885 268.637C275.117 269.175 274.218 269.491 273.284 269.551C272.35 269.61 271.418 269.41 270.589 268.973C268.467 268.013 266.626 266.52 265.243 264.639C264.073 263.211 263.054 262.119 264.357 260.422C264.725 259.918 265.694 259.078 265.677 258.339C265.643 257.917 265.452 257.523 265.143 257.237C264.833 256.95 264.427 256.792 264.006 256.793C261.985 255.802 261.25 258.473 260.197 259.7C259.482 260.424 258.557 260.903 257.555 261.069C256.554 261.235 255.525 261.079 254.617 260.624C253.197 260.103 248.869 258.154 249.889 256.155C250.323 255.264 251.676 255.214 252.211 254.475C252.452 253.99 252.528 253.439 252.425 252.907C252.322 252.375 252.047 251.893 251.643 251.534C251.108 250.913 248.686 249.451 248.686 251.081C248.468 251.501 248.686 252.223 248.569 252.761C248.362 253.31 248.189 253.871 248.051 254.441C247.332 254.743 246.915 255.617 246.38 256.02C245.706 256.537 244.901 256.851 244.058 256.927C243.869 256.904 243.678 256.904 243.49 256.927C241.056 255.916 238.889 254.352 237.158 252.358C236.545 251.68 236.063 250.894 235.738 250.039C235.52 248.947 236.423 248.174 236.389 247.099C236.389 245.268 233.198 242.781 232.547 245.419C232.229 246.763 232.947 247.704 232.279 249.065C231.845 249.922 231.344 250.745 230.274 250.745V250.846C225.129 250.123 230.391 244.411 227.417 242.294C226.465 241.622 223.959 240.816 222.873 241.454C221.202 242.429 223.257 244.445 221.202 245.285L220.801 245.15C218.613 244.697 215.789 242.462 216.157 239.858C216.307 238.85 217.46 238.178 217.477 237.22C217.285 236.302 216.746 235.495 215.973 234.969C215.741 234.674 215.433 234.451 215.081 234.323C214.73 234.195 214.35 234.169 213.985 234.247C212.865 234.431 212.849 235.07 212.899 236.095C213.032 238.531 212.765 239.774 210.51 241.017C209.554 240.895 208.634 240.579 207.804 240.088C206.974 239.597 206.251 238.942 205.681 238.161C204.913 236.817 205.681 234.532 205.681 233.121C205.498 232.046 203.225 231.206 202.34 231.004C198.614 228.77 200.185 222.486 204.696 224.721C206.26 225.805 207.53 227.266 208.388 228.971C209.223 230.147 211.312 232.331 212.632 230.349C213.684 228.803 211.596 228.148 211.696 226.737C211.796 226.754 211.395 227.073 211.629 227.039Z" fill="#9FCC29"/>
<path d="M227.887 207.888C227.887 207.888 213.228 206.049 206.535 210.307L206.97 213.008C206.97 213.008 230.531 217.382 245.675 227.058C260.819 236.734 276.498 248.962 280.698 253.568C280.698 253.568 298.369 245.284 313.111 252.922L314.299 250.42C311.7 246.451 308.184 243.152 304.042 240.794C297.633 237.347 250.946 223.496 227.887 207.888Z" fill="#FFCF08"/>
<path d="M287.392 248.886C284.045 249.441 281.301 250.048 281.301 250.048C266.241 237.718 255.096 228.15 242.964 222.389C231.321 216.796 219.106 212.504 206.535 209.587L206.97 212.333C206.97 212.333 230.531 216.78 245.675 226.617C260.819 236.454 276.498 248.886 280.698 253.568C280.698 253.568 298.369 245.146 313.111 252.911L314.299 250.368C301.866 245.011 291.793 248.128 287.392 248.886Z" fill="#EFA708"/>
<path d="M307.893 234.695C308.353 235.231 308.691 235.858 308.884 236.534C309.076 237.21 309.119 237.92 309.008 238.613C308.4 240.514 306.135 243.882 304.885 244.132C302.181 244.649 253.579 228.06 219.24 207.452C219.24 207.452 218.344 206.302 220.93 199.116C220.93 199.116 229.65 207.885 268.146 224.125C298.683 236.913 307.893 234.695 307.893 234.695Z" fill="#E72124"/>
<g style="mix-blend-mode:multiply" opacity="0.55">
<path d="M263.404 226.758C271.252 230.047 279.265 232.93 287.412 235.394C294.594 237.811 300.805 239.695 307.987 238.578C308.067 237.904 308.009 237.222 307.816 236.571C307.624 235.92 307.3 235.316 306.865 234.794C306.865 234.794 297.741 236.944 267.54 224.123C229.403 207.952 220.764 199.116 220.764 199.116C220.042 201.004 219.482 202.951 219.09 204.934C232.165 214.987 248.605 220.006 263.404 226.758Z" fill="#C42124"/>
</g>
<path d="M280.095 186.055C271.96 182.358 263.38 179.727 254.57 178.226C248.652 177.046 242.584 176.813 236.593 177.535C231.172 178.286 226.126 180.725 222.171 184.506C220.472 186.416 219.245 188.699 218.589 191.17C217.934 193.641 217.868 196.231 218.397 198.733C220.082 207.504 294.737 239.241 308.552 236.665C308.552 236.665 314.399 234.005 315.291 225.688C315.713 221.327 313.607 216.091 311.484 212.387C307.964 206.59 303.447 201.46 298.14 197.234C292.636 192.742 286.57 188.984 280.095 186.055Z" fill="#F89945"/>
<path d="M295.451 224.396C283.528 222.733 273.733 216.896 262.908 212.107C251.779 207.119 239.889 203.028 229.942 195.912C225.534 192.736 222.545 189.626 221.87 185.502C220.278 187.38 219.138 189.588 218.535 191.961C217.933 194.333 217.883 196.81 218.391 199.204C220.08 207.867 294.911 239.211 308.759 236.667C310.613 235.624 312.18 234.152 313.328 232.379C314.475 230.606 315.168 228.586 315.346 226.491C308.793 227.206 302.544 225.443 295.451 224.396Z" fill="#E8761F"/>
<g style="mix-blend-mode:screen" opacity="0.32">
<path d="M280.605 190.412C278.532 188.419 272.14 184.45 269.754 187.925C267.699 190.924 273.342 194.509 275.258 195.57C277.435 196.795 281.179 198.02 282.538 195.753C283.565 194.015 282.329 192.04 280.605 190.412Z" fill="#FDE5C1"/>
</g>
<g style="mix-blend-mode:screen" opacity="0.32">
<path d="M294.6 205.648C289.546 202.614 283.504 200.163 278.138 201.664C273.726 202.864 275.883 206.265 278.303 208.499C282.069 212.048 286.503 214.792 291.34 216.568C294.534 217.651 300.312 219.635 301.645 215.234C301.778 214.561 301.777 213.869 301.645 213.197C301.512 212.524 301.249 211.885 300.872 211.316C299.135 209.06 297.01 207.139 294.6 205.648Z" fill="#FDE5C1"/>
</g>
<path d="M256.755 188.055C256.755 188.938 255.638 189.691 254.194 189.691C252.751 189.691 251.556 189.069 251.525 188.186C251.493 187.302 252.658 186.549 254.101 186.549C255.545 186.549 256.74 187.188 256.755 188.055Z" fill="#FBD198"/>
<path d="M272.449 209.007C272.449 209.886 271.089 210.634 269.357 210.634C267.625 210.634 266.19 210 266.172 209.121C266.153 208.242 267.532 207.493 269.264 207.493C270.996 207.493 272.412 208.095 272.449 209.007Z" fill="#FBD198"/>
<path d="M290.236 215.281C290.236 216.165 289.118 216.917 287.659 216.917C286.2 216.917 285.036 216.279 285.005 215.412C284.974 214.545 286.138 213.776 287.581 213.776C289.025 213.776 290.22 214.414 290.236 215.281Z" fill="#FBD198"/>
<path d="M242.108 187.008C242.108 187.891 240.99 188.644 239.547 188.644C238.103 188.644 236.908 188.006 236.877 187.139C236.846 186.271 238.01 185.502 239.453 185.502C240.897 185.502 242.092 186.075 242.108 187.008Z" fill="#FBD198"/>
<path d="M310.114 217.376C310.114 218.259 308.773 219.012 307.023 219.012C305.272 219.012 303.875 218.374 303.838 217.506C303.8 216.639 305.197 215.87 306.929 215.87C308.662 215.87 310.021 216.525 310.114 217.376Z" fill="#FBD198"/>
<path d="M279.378 207.25C278.72 207.869 277.402 207.25 276.471 205.994C275.539 204.738 275.298 203.118 275.973 202.5C276.647 201.881 277.949 202.5 278.896 203.756C279.844 205.012 280.053 206.65 279.378 207.25Z" fill="#FBD198"/>
<path d="M297.533 209.668C297.286 210.479 295.636 210.847 293.986 210.51C292.336 210.173 291.066 209.27 291.312 208.459C291.559 207.648 293.209 207.281 294.859 207.618C296.508 207.954 297.76 208.872 297.533 209.668Z" fill="#FBD198"/>
<path d="M251.165 199.969C250.485 200.463 249.176 199.969 248.221 198.968C247.267 197.967 247.057 196.661 247.736 196.167C248.416 195.674 249.725 196.167 250.663 197.183C251.601 198.199 251.779 199.476 251.165 199.969Z" fill="#FBD198"/>
<path d="M264.777 201.043C264.141 201.55 262.835 200.862 261.873 199.506C260.911 198.149 260.653 196.647 261.289 196.141C261.924 195.634 263.23 196.322 264.193 197.678C265.155 199.035 265.413 200.537 264.777 201.043Z" fill="#FBD198"/>
<path d="M235.64 193.57C235.086 194.173 233.574 193.871 232.228 192.883C230.882 191.894 230.254 190.604 230.789 190.001C231.324 189.398 232.855 189.7 234.201 190.688C235.548 191.676 236.175 192.966 235.64 193.57Z" fill="#FBD198"/>
<path d="M289.822 199.993C289.133 200.437 287.825 199.993 286.895 198.868C285.965 197.743 285.776 196.588 286.464 196.144C287.153 195.7 288.462 196.144 289.391 197.269C290.321 198.394 290.51 199.549 289.822 199.993Z" fill="#FBD198"/>
<path d="M305.527 210.422C304.838 210.977 303.529 210.422 302.6 209.016C301.67 207.609 301.463 206.166 302.152 205.611C302.841 205.056 304.166 205.611 305.079 207.017C305.991 208.424 306.215 209.867 305.527 210.422Z" fill="#FBD198"/>
<path d="M264.712 187.385C264.023 187.938 262.714 187.385 261.785 185.984C260.855 184.582 260.665 183.126 261.354 182.572C262.043 182.019 263.351 182.572 264.281 183.974C265.211 185.375 265.4 186.832 264.712 187.385Z" fill="#FBD198"/>
<g style="mix-blend-mode:multiply" opacity="0.35">
<path d="M315.261 224.345C302.567 224.643 288.289 220.26 277.146 216.24C269.088 213.346 260.288 210.203 253.747 204.546C247.207 198.889 244.257 191.479 249.078 183.804C250.336 181.865 252.077 180.271 254.135 179.173C248.358 178.083 242.443 177.882 236.603 178.578C231.179 179.315 226.13 181.711 222.173 185.425C220.473 187.302 219.245 189.545 218.59 191.973C217.934 194.4 217.868 196.945 218.397 199.402C220.083 208.02 294.779 239.199 308.602 236.668C308.602 236.668 314.451 234.055 315.345 225.884C315.351 225.37 315.323 224.856 315.261 224.345Z" fill="#D48745"/>
</g>
<g style="mix-blend-mode:multiply" opacity="0.32">
<path d="M266.64 214.086L262.628 212.227C251.799 207.317 240.273 203.054 230.481 196.234C226.112 193.199 223.137 190.266 222.304 186.549C220.865 188.174 219.863 190.14 219.393 192.261C218.923 194.383 219.001 196.589 219.618 198.672C220.791 203.088 244.438 215.023 267.218 224.248C266.564 220.903 266.369 217.484 266.64 214.086Z" fill="#BA773D"/>
</g>
<path d="M190.841 273.102C190.841 273.102 152.299 241.128 131.882 249.862C111.465 258.596 103.649 262.13 99.0837 272.883C96.2873 279.446 94.5354 301.491 93.053 308.643C91.5706 315.796 86.3148 331.446 108.652 328.652C130.989 325.859 168.571 273.354 190.841 273.102Z" fill="#F89945"/>
<g style="mix-blend-mode:multiply" opacity="0.35">
<path d="M150.439 249.398H149.429H149.294C149.16 249.76 148.906 250.065 148.575 250.263C148.244 250.46 147.856 250.537 147.476 250.482C141.028 249.821 136.702 251.312 130.524 253.498C127.527 254.549 122.595 257.429 119.295 256.633C119.169 256.582 119.05 256.513 118.942 256.43C118.201 256.633 117.46 256.819 116.753 257.074C111.282 258.921 110.02 261.581 107.562 266.681C105.878 270.206 102.31 278.542 98.0842 280.847C98.3344 283.27 98.7052 285.679 99.1952 288.065C99.7944 291.02 99.9082 294.054 99.5319 297.046C98.9932 300.283 97.5623 303.451 93.9598 303.333C93.8083 304.383 93.6736 305.332 93.5389 306.196C94.9283 308.646 95.8049 311.356 96.1146 314.16C96.2493 317.193 95.3065 320.209 95.6096 322.955C97.6633 324.225 98.1852 326.123 98.7071 328.394C101.998 329.089 105.387 329.169 108.707 328.631C130.995 325.801 168.586 272.951 190.841 272.714C190.841 272.663 169.697 254.972 150.439 249.398Z" fill="#E09945"/>
</g>
<path d="M111.979 269.145C111.607 269.87 111.389 270.666 111.337 271.482C111.286 272.299 111.402 273.117 111.68 273.885C111.957 274.652 112.389 275.352 112.948 275.939C113.506 276.526 114.179 276.986 114.923 277.292C116.333 277.716 117.822 277.786 119.265 277.495C126.051 276.528 132.122 272.896 138.21 269.705C144.298 266.514 150.935 263.629 157.738 264.308C159.601 264.494 161.43 264.953 163.31 264.987C165.192 265.142 167.057 264.532 168.5 263.289C169.903 261.55 170.693 259.381 170.745 257.128C171.061 254.769 171.261 252.037 169.647 250.339C168.649 249.304 167.169 248.88 166.138 247.878C165.094 246.546 164.258 245.058 163.659 243.466C162.716 241.818 161.292 240.513 159.586 239.731C157.881 238.949 155.978 238.73 154.145 239.104C153.38 239.273 152.482 239.833 152.648 240.614C152.814 241.395 153.862 241.463 154.627 241.31C155.392 241.157 156.291 240.971 156.806 241.616C157.322 242.26 156.806 243.313 155.991 243.516C155.22 243.706 154.411 243.665 153.663 243.398C149.134 242.326 144.435 242.245 139.873 243.16C139.092 243.263 138.345 243.554 137.694 244.009C137.377 244.248 137.14 244.583 137.018 244.966C136.895 245.35 136.894 245.763 137.012 246.147C137.578 247.488 139.873 247.522 140.09 248.965C140.114 249.324 140.026 249.683 139.838 249.988C139.649 250.293 139.37 250.529 139.042 250.662C138.382 250.906 137.678 250.999 136.979 250.933L130.792 250.815C129.761 250.023 128.566 249.483 127.298 249.236C126.662 249.129 126.01 249.238 125.439 249.544C124.869 249.85 124.412 250.338 124.138 250.933C123.656 252.359 124.62 254.192 123.656 255.329C123.202 255.713 122.631 255.923 122.042 255.923C121.453 255.923 120.882 255.713 120.429 255.329C119.526 254.553 118.57 253.844 117.568 253.208C116.685 252.86 115.713 252.825 114.808 253.108C113.903 253.391 113.118 253.976 112.578 254.769C112.069 255.571 111.778 256.496 111.734 257.45C111.69 258.405 111.895 259.354 112.328 260.2C113.077 261.762 114.507 263.137 114.424 264.868C114.341 266.599 112.844 267.651 111.979 269.145Z" fill="#9FCC29"/>
<path d="M164.175 247.679C163.228 246.398 162.68 244.864 161.832 243.515C161.455 242.809 160.909 242.21 160.244 241.774C159.579 241.338 158.816 241.079 158.026 241.02C158.287 241.202 158.506 241.438 158.671 241.713C158.835 241.987 158.94 242.293 158.979 242.612C159.018 242.93 158.991 243.253 158.898 243.56C158.806 243.867 158.65 244.15 158.442 244.392C158.303 244.55 158.147 244.691 157.977 244.813C158.387 245.341 158.748 245.905 159.057 246.499C159.722 247.915 160.303 249.365 160.852 250.815C161.666 252.973 162.829 255.434 161.865 257.71C160.901 259.986 157.91 259.16 157.96 257.323C157.9 257.227 157.85 257.125 157.81 257.019C157.202 254.252 156.176 251.596 154.769 249.146C153.739 247.46 152.376 246.162 151.262 244.628C148.743 243.927 146.113 243.727 143.518 244.038C142.87 244.038 142.072 244.358 141.856 245.016C141.64 245.673 142.338 246.246 142.97 246.482C143.631 246.607 144.26 246.871 144.814 247.258C144.991 247.492 145.117 247.762 145.184 248.049C145.251 248.336 145.257 248.635 145.202 248.925C145.148 249.214 145.033 249.489 144.866 249.731C144.698 249.972 144.483 250.175 144.233 250.326C143.186 250.898 141.981 251.099 140.809 250.899C140.085 250.84 139.357 250.84 138.632 250.899C138.402 250.955 138.169 250.995 137.934 251.017C137.717 251.062 137.505 251.13 137.302 251.22C136.312 251.81 135.443 252.588 134.743 253.513C134.387 253.973 133.933 254.345 133.415 254.602C132.897 254.859 132.328 254.994 131.752 254.996C130.09 254.777 128.661 252.585 127.049 253.31C125.437 254.035 126.051 257.036 124.606 258.368C124.154 258.676 123.627 258.85 123.083 258.868C122.539 258.885 122.001 258.747 121.531 258.469C120.551 258.014 119.703 257.272 118.689 256.783C118.203 256.532 117.652 256.438 117.112 256.513C116.571 256.589 116.066 256.83 115.665 257.205C115.334 257.765 115.186 258.416 115.239 259.066C115.293 259.716 115.546 260.333 115.964 260.829C116.828 261.819 117.404 263.033 117.626 264.336C117.626 266.882 114.302 268.146 113.537 270.574C113.319 271.585 113.401 272.639 113.774 273.602C114.147 274.566 114.793 275.395 115.631 275.985C116.546 276.714 117.574 277.283 118.673 277.671L119.321 277.587C126.101 276.626 132.167 273.018 138.25 269.849C144.332 266.679 150.963 263.813 157.76 264.488C159.622 264.673 161.45 265.128 163.328 265.162C165.208 265.316 167.072 264.71 168.513 263.476C169.915 261.748 170.705 259.594 170.757 257.356C170.953 256.153 171.009 254.931 170.923 253.715C169.045 251.372 165.97 250.073 164.175 247.679Z" fill="#73A624"/>
<path d="M105.048 281.783C105.048 281.783 107.558 268.223 107.859 266.152C107.859 266.152 116.378 271.783 124.846 270.505L133.297 279.793C133.297 279.793 115.491 287.64 105.048 281.783Z" fill="#FFCF08"/>
<g style="mix-blend-mode:multiply" opacity="0.35">
<path d="M124.412 271.388L123.56 271.487C122.848 273.306 121.681 274.924 120.164 276.198C118.647 277.472 116.828 278.361 114.87 278.787C113.439 279.001 111.975 278.843 110.628 278.329C109.281 277.816 108.099 276.965 107.202 275.864C106.622 279.067 106.094 281.941 106.094 281.941C115.756 287.374 132.251 280.091 132.251 280.091L124.412 271.388Z" fill="#E6B970"/>
</g>
<path d="M108.882 267.199C108.581 269.465 106.094 283.498 106.094 283.498C106.845 283.937 106.778 283.65 107.596 283.954C107.329 279.609 110.4 270.091 110.4 270.091C120.732 272.931 126.207 273.015 124.672 271.173C119.18 271.068 113.783 269.71 108.882 267.199Z" fill="#EFA708"/>
<path d="M115.529 283.61C115.546 283.724 115.546 283.84 115.529 283.954C121.657 283.583 127.672 282.14 133.297 279.689L129.641 277.671C125.607 278.688 115.003 280.608 115.529 283.61Z" fill="#EFA708"/>
<path d="M124.908 293.409C124.989 291.065 124.81 288.719 124.376 286.413C124.227 285.381 124.061 284.331 123.911 283.282C123.762 282.232 122.998 281.833 122.134 281.899C121.28 282.077 120.437 282.305 119.609 282.582C117.749 282.982 115.939 281.899 114.228 281.066C111.122 279.551 107.716 278.754 104.262 278.734C102.691 278.637 101.124 278.989 99.7443 279.75C99.0636 280.152 98.5289 280.762 98.2181 281.49C97.9074 282.218 97.8369 283.027 98.0169 283.798C98.7809 286.23 102.369 286.763 103.266 289.162C103.415 289.562 103.432 290.111 103.05 290.328C102.668 290.544 102.186 290.211 101.837 289.911C100.312 288.506 98.4036 287.59 96.3559 287.28C95.3225 287.138 94.2707 287.226 93.2748 287.537C92.2789 287.848 91.3632 288.374 90.5924 289.079C89.8351 289.805 89.3036 290.736 89.0619 291.758C88.8203 292.781 88.8788 293.852 89.2304 294.842C89.6285 295.809 90.3566 296.604 91.2845 297.083C92.2124 297.562 93.2798 297.694 94.2963 297.457C95.3593 297.157 96.5552 296.408 97.4522 297.057C97.6195 297.232 97.7469 297.442 97.8252 297.671C97.9035 297.9 97.931 298.144 97.9057 298.385C97.8804 298.626 97.8029 298.859 97.6787 299.067C97.5544 299.275 97.3864 299.453 97.1864 299.589C96.757 299.845 96.2756 300 95.7781 300.043C95.2806 300.087 94.7798 300.017 94.3129 299.839C93.3566 299.5 92.373 299.244 91.373 299.073C90.3677 299.01 89.3678 299.261 88.511 299.792C87.6542 300.324 86.9828 301.108 86.5894 302.038C86.2319 302.979 86.1282 303.998 86.2885 304.993C86.4489 305.987 86.8678 306.921 87.503 307.702C88.1598 308.465 88.9732 309.078 89.8876 309.497C90.802 309.917 91.7958 310.134 92.8014 310.133C94.7559 309.961 96.6842 309.564 98.5484 308.951C103.697 307.768 109.245 308.734 114.278 307.069C117.168 306.051 119.706 304.224 121.59 301.802C123.474 299.381 124.626 296.468 124.908 293.409Z" fill="#9FCC29"/>
<path d="M99.9378 297.544C100.4 298.973 99.1456 300.471 97.7594 300.988C96.3287 301.267 94.8671 301.331 93.419 301.177C92.6984 301.105 91.972 301.226 91.3081 301.527C90.6442 301.828 90.0645 302.3 89.6233 302.899C89.2828 303.735 89.2644 304.676 89.5718 305.526C89.8791 306.376 90.4887 307.07 91.2736 307.463C92.8966 308.167 94.7099 308.228 96.3731 307.635C99.4592 306.757 102.298 304.983 105.45 304.363C107.562 303.933 109.741 304.053 111.886 303.778C114.06 303.661 116.108 302.681 117.613 301.04C118.582 299.664 119.232 298.073 119.51 296.39C120.548 291.853 121.308 287.251 121.788 282.614C119.032 284.026 115.946 285.489 112.975 284.646C111.796 284.253 110.683 283.672 109.675 282.924C108.654 282.17 107.544 281.557 106.374 281.098C105.783 280.877 105.155 280.783 104.528 280.821C103.902 280.86 103.289 281.03 102.727 281.322C102.173 281.639 101.738 282.14 101.489 282.746C101.241 283.351 101.194 284.026 101.357 284.663C101.603 285.188 101.959 285.648 102.399 286.008C102.839 286.369 103.352 286.622 103.899 286.747C104.991 286.968 106.062 287.291 107.1 287.711C107.605 287.944 108.032 288.329 108.326 288.817C108.62 289.305 108.768 289.873 108.75 290.449C108.649 290.907 108.434 291.33 108.127 291.674C107.82 292.019 107.432 292.273 107.001 292.412C105.561 292.843 104.018 292.696 102.677 291.999C101.308 291.413 100.037 290.57 98.6505 290.036C97.9688 289.725 97.2327 289.564 96.4886 289.564C95.7445 289.564 95.0085 289.725 94.3267 290.036C93.682 290.395 93.1952 291.001 92.9677 291.726C92.7402 292.451 92.7895 293.24 93.1055 293.927C93.5601 294.443 94.1143 294.853 94.7316 295.129C95.3488 295.405 96.0152 295.541 96.6867 295.529C98.0564 295.736 99.5252 296.201 99.9378 297.544Z" fill="#73A624"/>
<path d="M106.094 306.203C106.091 306.647 106.213 307.083 106.447 307.466C106.682 307.849 107.02 308.165 107.426 308.381C108.238 308.821 109.155 309.054 110.089 309.057C112.715 309.217 115.339 308.716 117.698 307.605C120.613 306.26 122.908 303.941 124.149 301.088C124.753 299.668 125.011 298.135 124.903 296.606C124.795 295.077 124.324 293.591 123.526 292.261C122.696 290.946 121.508 289.871 120.09 289.148C118.671 288.424 117.074 288.081 115.467 288.152C114.291 288.251 112.925 288.829 112.839 289.951C112.752 291.073 114.049 291.832 114.568 292.871C114.735 293.242 114.795 293.648 114.744 294.048C114.692 294.448 114.53 294.827 114.274 295.148C114.008 295.463 113.661 295.706 113.267 295.853C112.873 296.001 112.445 296.048 112.026 295.99C110.608 295.792 109.432 294.34 108.031 294.653C107.491 294.801 107.023 295.125 106.707 295.568C106.391 296.011 106.248 296.545 106.302 297.079C106.453 298.12 106.786 299.129 107.287 300.065C107.793 301.006 107.934 302.087 107.685 303.118C107.391 304.223 106.25 305.048 106.094 306.203Z" fill="#9FCC29"/>
<path d="M122.489 292.172C121.619 291.989 120.799 291.624 120.083 291.101C119.367 290.572 118.506 290.271 117.613 290.237C117.173 290.236 116.75 290.401 116.429 290.698C116.108 290.995 115.914 291.402 115.885 291.836C115.885 292.491 116.515 292.987 116.838 293.563C117.06 293.959 117.176 294.404 117.176 294.857C117.176 295.311 117.06 295.756 116.838 296.152C116.601 296.54 116.27 296.863 115.875 297.092C115.481 297.321 115.034 297.449 114.577 297.463C113.922 297.402 113.274 297.284 112.639 297.112C112.284 296.984 111.897 296.973 111.536 297.08C111.174 297.187 110.856 297.406 110.63 297.706C110.404 298.005 110.281 298.368 110.279 298.742C110.277 299.116 110.397 299.48 110.621 299.781C111.268 301.201 112.416 302.338 113.85 302.979C115.273 303.649 116.848 303.941 118.42 303.826C120.335 303.798 122.191 303.165 123.717 302.019C124.472 301.403 125.07 300.618 125.46 299.729C125.85 298.839 126.022 297.871 125.961 296.904C125.876 295.941 125.492 295.027 124.862 294.289C124.232 293.55 123.386 293.023 122.441 292.779L122.489 292.172Z" fill="#73A624"/>
<path d="M155.412 257.839L157.969 263.011L180.378 261.925L179.894 257.684C179.894 257.684 172.992 247.84 165.489 247.34C157.986 246.84 154.493 251.495 155.412 257.839Z" fill="#D12424"/>
<path d="M155.415 257.775H180.378C180.378 257.775 173.341 247.846 165.69 247.342C158.039 246.837 154.478 251.376 155.415 257.775Z" fill="#EA3333"/>
<path d="M161.334 254.943C162.119 255.269 164.747 257.329 165.054 257.38C164.363 256.186 163.593 255.04 162.751 253.948C162.751 253.948 164.338 252.231 168.979 254.102C168.979 254.102 168.126 255.939 169.457 256.934C170.788 257.929 170.754 254.789 170.669 254.342C170.583 253.896 173.826 255.098 175.532 257.638H180.378C180.378 257.638 173.331 247.838 165.669 247.34C158.007 246.842 154.44 251.459 155.43 257.775H160.345C160.447 256.591 160.788 254.703 161.334 254.943Z" fill="#C91D1D"/>
<path d="M164.133 251.167C166.678 250.994 169.223 251.502 171.51 252.638C173.797 253.775 175.744 255.5 177.153 257.638H180.378C180.378 257.638 173.331 247.838 165.669 247.34C158.007 246.842 154.44 251.459 155.43 257.775H157.768C157.495 252.352 160.703 251.322 164.133 251.167Z" fill="#FF3333"/>
<path d="M162.592 256.412C162.592 256.679 162.445 256.804 162.167 256.679C162.015 256.617 161.881 256.523 161.773 256.403C161.665 256.284 161.588 256.142 161.546 255.989C161.546 255.723 161.709 255.613 161.987 255.723C162.136 255.786 162.269 255.88 162.373 256C162.478 256.12 162.553 256.261 162.592 256.412Z" fill="#FF7E70"/>
<path d="M165.731 255.346C165.731 255.616 165.59 255.751 165.309 255.643C165.15 255.582 165.011 255.489 164.902 255.371C164.794 255.254 164.719 255.115 164.685 254.968C164.685 254.698 164.825 254.563 165.106 254.671C165.263 254.734 165.402 254.828 165.51 254.945C165.618 255.062 165.694 255.2 165.731 255.346Z" fill="#FF7E70"/>
<path d="M167.823 256.381C167.823 256.649 167.691 256.795 167.396 256.698C167.239 256.627 167.103 256.53 166.996 256.413C166.89 256.295 166.815 256.16 166.777 256.016C166.777 255.749 166.91 255.615 167.204 255.712C167.36 255.78 167.497 255.875 167.603 255.99C167.71 256.106 167.785 256.239 167.823 256.381Z" fill="#FF7E70"/>
<path d="M173.055 256.404C173.055 256.658 172.913 256.801 172.629 256.69C172.476 256.623 172.342 256.527 172.235 256.409C172.128 256.291 172.05 256.154 172.008 256.007C172.008 255.737 172.15 255.61 172.452 255.721C172.604 255.786 172.737 255.881 172.842 255.999C172.946 256.118 173.019 256.256 173.055 256.404Z" fill="#FF7E70"/>
<path d="M120.077 257.971L116.557 261.311L134.405 290.237L138.421 289.586C139.867 286.7 140.621 283.51 140.621 280.275C140.621 277.04 139.867 273.851 138.421 270.965C133.397 261.228 125.927 256.752 120.077 257.971Z" fill="#D12424"/>
<path d="M119.695 257.969L138.38 289.19C139.853 286.337 140.621 283.184 140.621 279.986C140.621 276.787 139.853 273.634 138.38 270.781C133.263 261.189 125.654 256.764 119.695 257.969Z" fill="#EA3333"/>
<path d="M127.091 265.399C127.327 266.389 127.091 269.741 127.259 270.038C127.428 270.335 129.129 267.165 129.129 267.165C129.129 267.165 132.195 269.147 133.594 274.942C133.594 274.942 131.033 273.885 130.966 275.553C130.898 277.22 134.2 277.204 134.605 277.055C135.009 276.906 136.171 281.017 134.739 283.147L138.378 289.19C139.852 286.337 140.621 283.184 140.621 279.986C140.621 276.787 139.852 273.634 138.378 270.781C133.324 261.189 125.659 256.764 119.695 257.969L123.368 264.061C124.665 264.293 126.923 264.705 127.091 265.399Z" fill="#C91D1D"/>
<path d="M133.055 268.816C136.188 273.769 138.816 279.73 135.969 285.178L138.378 289.19C139.852 286.337 140.621 283.184 140.621 279.986C140.621 276.787 139.852 273.634 138.378 270.781C133.324 261.189 125.659 256.764 119.695 257.969L121.38 260.875C126.855 260.528 130.342 264.524 133.055 268.816Z" fill="#FF3333"/>
<path d="M126.65 267.2C126.383 267.2 126.099 266.897 126.016 266.316C125.958 266.091 125.959 265.841 126.018 265.617C126.076 265.392 126.189 265.21 126.333 265.105C126.6 265.105 126.883 265.408 126.983 265.988C127.036 266.217 127.031 266.467 126.969 266.69C126.908 266.914 126.794 267.095 126.65 267.2Z" fill="#FF7E70"/>
<path d="M129.779 270.339C129.627 270.35 129.476 270.311 129.357 270.231C129.239 270.151 129.163 270.036 129.145 269.911C129.094 269.793 129.102 269.663 129.167 269.549C129.231 269.436 129.348 269.348 129.491 269.305C129.764 269.245 130.038 269.436 130.124 269.721C130.176 269.841 130.168 269.973 130.104 270.088C130.039 270.204 129.923 270.294 129.779 270.339Z" fill="#FF7E70"/>
<path d="M130.833 273.475C130.688 273.507 130.542 273.439 130.425 273.286C130.309 273.133 130.231 272.908 130.209 272.657C130.176 272.538 130.158 272.408 130.158 272.275C130.158 272.143 130.175 272.012 130.207 271.893C130.24 271.773 130.288 271.668 130.347 271.585C130.407 271.502 130.476 271.443 130.55 271.412C130.624 271.382 130.702 271.38 130.776 271.409C130.851 271.437 130.921 271.494 130.981 271.575C131.041 271.656 131.09 271.76 131.124 271.878C131.158 271.997 131.176 272.127 131.177 272.259C131.222 272.5 131.211 272.761 131.147 272.988C131.083 273.215 130.97 273.39 130.833 273.475Z" fill="#FF7E70"/>
<path d="M133.974 279.766C133.705 279.766 133.42 279.63 133.336 279.344C133.28 279.225 133.284 279.093 133.347 278.976C133.41 278.859 133.526 278.767 133.672 278.719C133.826 278.714 133.976 278.756 134.094 278.837C134.212 278.917 134.289 279.03 134.31 279.154C134.36 279.271 134.353 279.4 134.291 279.513C134.229 279.627 134.115 279.717 133.974 279.766Z" fill="#FF7E70"/>
<path d="M119.183 256.939L115.51 260.277L134.131 289.19L138.321 288.539C139.833 285.652 140.621 282.461 140.621 279.224C140.621 275.987 139.833 272.796 138.321 269.909C133.08 260.144 125.304 255.67 119.183 256.939Z" fill="#D12424"/>
<path d="M119.695 256.943L138.376 289.19C139.852 286.242 140.621 282.984 140.621 279.68C140.621 276.375 139.852 273.117 138.376 270.169C133.26 260.215 125.67 255.648 119.695 256.943Z" fill="#EA3333"/>
<path d="M127.1 264.601C127.336 265.625 127.1 269.086 127.286 269.393C127.471 269.7 129.137 266.426 129.137 266.426C129.137 266.426 132.217 268.472 133.597 274.457C133.597 274.457 131.038 273.366 130.971 275.088C130.904 276.811 134.202 276.793 134.606 276.657C135.01 276.521 136.171 280.732 134.758 282.932L138.376 289.19C139.852 286.241 140.621 282.981 140.621 279.675C140.621 276.369 139.852 273.109 138.376 270.16C133.327 260.253 125.67 255.683 119.695 256.928L123.381 263.271C124.694 263.459 126.949 263.885 127.1 264.601Z" fill="#C91D1D"/>
<path d="M133.058 268.131C136.205 273.247 138.814 279.419 135.969 285.029L138.376 289.19C139.852 286.241 140.621 282.981 140.621 279.675C140.621 276.369 139.852 273.109 138.376 270.16C133.327 260.253 125.67 255.683 119.695 256.928L121.378 259.946C126.865 259.571 130.348 263.8 133.058 268.131Z" fill="#FF3333"/>
<path d="M125.619 266.152C125.348 266.152 125.042 266 124.958 265.72C124.873 265.441 124.958 265.148 125.28 265.11C125.602 265.072 125.84 265.25 125.941 265.542C126.043 265.835 125.89 266.102 125.619 266.152Z" fill="#FF7E70"/>
<path d="M129.422 270.338C129.117 270.359 128.814 270.283 128.575 270.127C128.336 269.97 128.178 269.745 128.134 269.496C128.03 269.254 128.045 268.988 128.176 268.754C128.307 268.521 128.544 268.339 128.837 268.247C129.137 268.251 129.427 268.338 129.66 268.494C129.893 268.649 130.056 268.864 130.124 269.104C130.191 269.345 130.158 269.597 130.031 269.82C129.904 270.044 129.69 270.226 129.422 270.338Z" fill="#FF7E70"/>
<path d="M129.785 272.43C129.713 272.439 129.64 272.436 129.569 272.421C129.499 272.405 129.433 272.378 129.375 272.34C129.317 272.302 129.268 272.254 129.232 272.199C129.195 272.145 129.172 272.084 129.163 272.022C129.129 271.962 129.112 271.897 129.112 271.831C129.112 271.765 129.128 271.7 129.161 271.64C129.194 271.58 129.241 271.528 129.3 271.486C129.36 271.445 129.429 271.415 129.503 271.4C129.577 271.385 129.654 271.384 129.728 271.398C129.802 271.412 129.872 271.441 129.932 271.481C129.992 271.522 130.04 271.574 130.074 271.633C130.108 271.692 130.126 271.757 130.127 271.823C130.151 271.883 130.161 271.946 130.157 272.008C130.153 272.071 130.134 272.133 130.102 272.189C130.07 272.246 130.026 272.296 129.971 272.337C129.917 272.379 129.853 272.41 129.785 272.43Z" fill="#FF7E70"/>
<path d="M133.972 278.718C133.702 278.718 133.415 278.581 133.331 278.291C133.28 278.172 133.287 278.042 133.349 277.927C133.412 277.812 133.526 277.72 133.668 277.671C133.938 277.671 134.225 277.809 134.309 278.098C134.36 278.217 134.353 278.348 134.291 278.463C134.228 278.578 134.114 278.669 133.972 278.718Z" fill="#FF7E70"/>
<path d="M153.349 259.021C154.036 258.647 154.616 258.098 155.031 257.427C155.223 256.913 155.3 256.362 155.256 255.814C155.213 255.265 155.05 254.734 154.779 254.258C154.224 253.028 153.422 251.931 152.425 251.037C151.662 250.296 150.723 249.77 149.7 249.512C149.191 249.38 148.659 249.362 148.143 249.46C147.626 249.557 147.136 249.768 146.707 250.077C146.287 250.399 145.972 250.843 145.804 251.351C145.636 251.858 145.622 252.406 145.765 252.921C145.141 251.96 144.283 251.178 143.276 250.653C142.268 250.128 141.144 249.876 140.014 249.923C138.626 249.994 137.319 250.608 136.364 251.636C135.894 252.139 135.554 252.753 135.375 253.423C135.195 254.093 135.183 254.798 135.338 255.474C135.529 256.137 135.912 256.726 136.438 257.163C136.963 257.601 137.606 257.866 138.281 257.924C137.442 257.612 136.53 257.562 135.662 257.781C134.794 257.999 134.01 258.477 133.411 259.152C132.811 259.828 132.423 260.67 132.296 261.571C132.169 262.473 132.309 263.392 132.698 264.212C133.099 264.97 133.666 265.623 134.354 266.122C135.042 266.621 135.833 266.953 136.667 267.091C138.378 267.362 140.13 267.124 141.712 266.405C143.235 265.692 144.688 264.831 146.051 263.835L153.349 259.021Z" fill="#FFCF08"/>
<path d="M152.487 258.961C152.799 258.511 153.011 257.998 153.111 257.458C153.211 256.918 153.195 256.362 153.065 255.829C152.935 255.295 152.694 254.796 152.358 254.363C152.022 253.931 151.598 253.576 151.115 253.322C150.632 253.067 150.101 252.92 149.557 252.889C149.013 252.858 148.468 252.944 147.96 253.141C147.451 253.339 146.99 253.643 146.608 254.034C146.225 254.426 145.93 254.895 145.741 255.41C145.23 254.448 144.445 253.664 143.487 253.158C142.528 252.653 141.441 252.45 140.367 252.575C139.904 252.604 139.456 252.748 139.064 252.996C138.671 253.243 138.346 253.586 138.118 253.993C137.953 254.486 137.941 255.017 138.082 255.518C138.224 256.018 138.513 256.463 138.911 256.794C139.722 257.44 140.657 257.911 141.656 258.178C139.805 258.063 137.98 258.659 136.547 259.845C136.193 260.091 135.903 260.42 135.701 260.803C135.5 261.186 135.393 261.612 135.389 262.046C135.452 262.397 135.602 262.726 135.824 263.003C136.047 263.28 136.335 263.495 136.663 263.63C137.32 263.895 138.022 264.031 138.73 264.03C141.352 264.146 143.978 263.899 146.535 263.297C147.974 262.992 149.346 262.427 150.586 261.629C151.826 260.82 152.7 259.55 153.017 258.094L152.487 258.961Z" fill="#EFA708"/>
<path d="M183.056 260.793C183.561 261.483 184.263 261.991 185.064 262.245C185.862 262.485 186.635 262.805 187.371 263.202C187.741 263.395 188.06 263.677 188.3 264.026C188.54 264.374 188.694 264.777 188.748 265.2C188.744 265.606 188.658 266.008 188.495 266.378C188.332 266.748 188.096 267.08 187.802 267.352C186.832 268.327 185.594 268.972 184.256 269.201C182.918 269.43 181.543 269.232 180.318 268.633C179.437 268.119 178.618 267.5 177.879 266.788L175.738 264.807L173.299 262.348C171.616 260.169 169.348 258.547 166.777 257.685C167.08 256.946 167.547 256.291 168.141 255.772C168.734 255.252 169.438 254.884 170.196 254.696C171.713 254.329 173.292 254.329 174.809 254.696C175.205 254.843 175.627 254.899 176.046 254.857C176.465 254.816 176.87 254.679 177.232 254.457C177.746 253.961 177.779 253.125 178.161 252.51C178.403 252.133 178.749 251.84 179.154 251.666C179.558 251.493 180.004 251.448 180.434 251.536C180.863 251.636 181.265 251.83 181.614 252.104C181.963 252.378 182.252 252.726 182.459 253.125C182.857 253.931 183.024 254.837 182.94 255.738C182.94 256.609 182.675 257.446 182.592 258.334C182.467 259.184 182.631 260.053 183.056 260.793Z" fill="#9FCC29"/>
<path d="M167.823 260.111C171.382 259.721 174.739 258.24 177.446 255.867C177.885 255.402 178.406 255.025 178.983 254.755C179.265 254.634 179.577 254.603 179.878 254.664C180.179 254.725 180.455 254.876 180.671 255.097C180.845 255.373 180.938 255.694 180.938 256.021C180.938 256.349 180.845 256.67 180.671 256.945C180.35 257.51 179.877 257.989 179.573 258.571C179.369 258.959 179.245 259.385 179.208 259.823C179.17 260.26 179.221 260.702 179.357 261.119C179.493 261.537 179.71 261.922 179.997 262.252C180.284 262.581 180.634 262.849 181.025 263.038C181.537 263.254 182.069 263.42 182.612 263.534C183.154 263.653 183.658 263.906 184.081 264.27C184.286 264.454 184.434 264.693 184.509 264.96C184.584 265.227 184.582 265.51 184.503 265.776C184.353 266.115 184.106 266.401 183.794 266.597C182.163 267.835 180.134 268.409 178.106 268.207C176.078 268.004 174.198 267.039 172.837 265.502C172.01 264.561 171.402 263.448 170.66 262.439C169.985 261.375 168.99 260.559 167.823 260.111Z" fill="#73A624"/>
<path d="M97.7867 326.835C101.391 328.236 105.409 328.301 109.06 327.018C110.869 326.37 112.52 325.373 113.91 324.087C115.3 322.801 116.4 321.254 117.14 319.542C117.979 317.268 118.473 314.89 118.608 312.481L119.695 301.16C116.932 301.633 114.086 301.333 111.495 300.298C109.984 299.427 108.304 298.863 106.557 298.641C105.687 298.548 104.807 298.703 104.028 299.086C103.248 299.469 102.603 300.064 102.172 300.796C101.723 301.74 101.792 302.867 101.326 303.796C100.607 304.979 99.4368 305.847 98.0629 306.216C96.7022 306.57 95.4085 307.13 94.2302 307.873C93.6492 308.26 93.2231 308.826 93.0222 309.477C92.8213 310.128 92.8577 310.825 93.1252 311.453C93.6777 312.431 94.9898 312.879 95.4214 313.907C95.5566 314.372 95.5689 314.863 95.4574 315.335C95.3459 315.806 95.114 316.244 94.7826 316.608C94.1077 317.333 93.4956 318.109 92.9526 318.929C92.5692 319.73 92.4213 320.617 92.5247 321.494C92.6282 322.37 92.9791 323.203 93.5396 323.901C94.6352 325.248 96.1088 326.266 97.7867 326.835Z" fill="#B55728"/>
<g style="mix-blend-mode:multiply" opacity="0.32">
<path d="M113.77 304.85C110.606 307.114 110.272 309.68 109.107 313.001C108.646 314.012 107.929 314.883 107.029 315.528C106.129 316.172 105.077 316.568 103.978 316.675C102.824 316.857 101.644 316.726 100.558 316.295C99.472 315.865 98.5196 315.15 97.7991 314.226C95.8507 311.659 95.5009 308.657 92.9696 309.345C92.8623 309.647 92.8187 309.969 92.8416 310.29C92.8646 310.61 92.9535 310.922 93.1029 311.207C93.6358 312.196 94.9014 312.649 95.3178 313.689C95.4481 314.16 95.46 314.657 95.3525 315.134C95.2449 315.612 95.0212 316.054 94.7016 316.423C94.0505 317.156 93.4601 317.941 92.9363 318.771C92.5665 319.582 92.4238 320.48 92.5236 321.366C92.6234 322.253 92.9619 323.096 93.5025 323.803C94.5705 325.194 96.0169 326.243 97.6659 326.822C101.143 328.24 105.018 328.306 108.541 327.007C110.285 326.352 111.878 325.342 113.219 324.041C114.559 322.739 115.62 321.174 116.334 319.442C117.162 317.116 117.65 314.681 117.783 312.213C118.066 309.076 118.366 305.94 118.649 302.803C116.917 303.196 115.267 303.889 113.77 304.85Z" fill="#B55728"/>
</g>
<path d="M111.837 303.95C111.258 303.48 110.565 303.129 109.809 302.923C109.05 302.723 108.233 302.775 107.515 303.068C107.15 303.217 106.833 303.441 106.589 303.721C106.346 304.001 106.185 304.327 106.118 304.673C106.059 305.023 106.109 305.38 106.26 305.707C106.412 306.035 106.662 306.322 106.983 306.539C107.309 306.745 107.684 306.886 108.081 306.951C108.478 307.016 108.886 307.004 109.277 306.915C110.057 306.718 110.774 306.366 111.372 305.888C111.97 305.44 112.552 304.774 112.319 304.124C112.086 303.473 112.402 303.82 111.837 303.95Z" fill="#8D3800"/>
<path d="M108.39 310.815C107.967 310.427 107.443 310.192 106.891 310.143C106.34 310.094 105.788 310.233 105.313 310.541C104.848 310.867 104.48 311.332 104.253 311.881C104.026 312.43 103.951 313.039 104.035 313.633C104.136 314.242 104.389 314.81 104.767 315.272C105.145 315.735 105.632 316.075 106.176 316.256C106.703 316.433 107.261 316.464 107.801 316.348C108.341 316.232 108.846 315.972 109.271 315.591C109.564 315.337 109.804 315.019 109.978 314.659C110.151 314.298 110.254 313.902 110.279 313.496C110.263 313.073 110.167 312.659 109.997 312.278C109.826 311.897 109.585 311.559 109.289 311.285C108.714 310.639 109.037 311.382 108.39 310.815Z" fill="#8D3800"/>
<path d="M101.843 317.953C101.12 317.71 100.369 317.551 99.6057 317.479C98.8338 317.406 98.0602 317.6 97.43 318.025C97.1223 318.243 96.893 318.545 96.7726 318.889C96.6521 319.233 96.6463 319.603 96.7558 319.95C97.015 320.509 97.4999 320.948 98.1041 321.171C98.928 321.589 99.8758 321.741 100.801 321.603C101.259 321.528 101.69 321.343 102.049 321.066C102.409 320.789 102.686 320.429 102.854 320.022C103.002 319.607 102.987 319.157 102.813 318.751C102.639 318.346 102.317 318.012 101.904 317.809C101.536 317.68 102.21 317.953 101.843 317.953Z" fill="#8D3800"/>
<g style="mix-blend-mode:multiply" opacity="0.55">
<path d="M190.672 272.765H190.587L190.418 272.615L190.232 272.482C190.183 272.429 190.126 272.384 190.063 272.349L189.403 271.817L189.251 271.7L188.726 271.301L188.574 271.185C187.711 270.519 186.578 269.671 185.19 268.706C185.589 268.563 185.974 268.385 186.341 268.174C185.253 267.98 184.217 267.567 183.3 266.96C182.383 266.353 181.604 265.566 181.011 264.648C178.778 261.754 176.731 257.346 172.332 257.313C170.415 257.368 168.536 256.782 167.002 255.65C163.178 252.556 158.204 253.487 153.179 254.918C150.308 255.741 147.808 257.501 146.09 259.908C144.957 261.571 143.485 262.968 142.453 264.282C140.625 266.611 138.392 269.571 135.127 269.821C132.86 270.004 130.254 269.056 130.051 266.494C130.034 266.339 130.034 266.183 130.051 266.028C126.667 269.987 123.689 274.445 121.287 277.405C121.149 277.573 121.002 277.734 120.847 277.888C120.847 278.087 120.847 278.303 120.847 278.52C121.072 280.515 120.764 282.534 119.955 284.377C119.145 286.22 117.86 287.825 116.228 289.031C117.243 292.591 117.835 296.699 114.875 298.495C114.166 298.916 113.387 299.209 112.574 299.36C112.658 303.984 113.623 306.745 111.305 311.852C108.598 317.74 110.814 320.667 105.231 324.925C103.577 326.128 101.753 327.086 99.8167 327.769H100.189H100.46C101.136 327.852 101.83 327.902 102.591 327.935C103.353 327.935 104.148 327.935 104.994 327.935H105.569C106.432 327.935 107.261 327.802 108.293 327.686C130.694 324.908 168.474 273.031 190.841 272.798L190.672 272.765Z" fill="#BD9749"/>
</g>
<path d="M117.836 296.114C119.52 284.562 125.207 273.97 133.902 266.194C138.268 262.382 143.438 259.609 149.026 258.083C154.614 256.556 160.475 256.316 166.168 257.38C174.732 259.221 182.201 264.252 189.433 269.2C194.49 272.712 195.788 274.552 200.93 278.064C201.824 278.672 207.471 279.601 207.572 280.665C207.758 282.353 204.942 284.852 203.257 285.342C184.508 290.709 166.583 298.629 149.985 308.879C141.876 313.945 134.087 319.449 125.456 323.519C116.824 327.588 107.114 330.087 97.724 328.5C100.105 328.873 102.543 328.613 104.791 327.744C107.04 326.876 109.022 325.43 110.536 323.553C113.672 319.922 117.077 300.859 117.836 296.114Z" fill="#FAD15F"/>
<path d="M176.991 266.215C167.256 261.235 154.349 256.786 143.876 262.679C136.004 267.112 130.935 273.685 126.437 281.305C121.939 288.925 121.855 298.453 119.387 306.969C117.877 312.198 116.366 320.017 112.22 324.051C110.49 325.773 108.399 327.099 106.094 327.935C112.933 327.443 119.612 325.65 125.765 322.656C134.359 318.656 142.113 313.178 150.187 308.264C166.728 298.182 184.591 290.396 203.276 285.123C204.954 284.642 207.757 282.235 207.572 280.525C207.58 280.492 207.58 280.458 207.572 280.425C196.377 280.11 186.743 271.212 176.991 266.215Z" fill="#F9C22D"/>
<path d="M176.991 266.215C167.256 261.235 154.349 256.786 143.876 262.679C136.004 267.112 130.935 273.685 126.437 281.305C121.939 288.925 121.855 298.453 119.387 306.969C117.877 312.198 116.366 320.017 112.22 324.051C110.49 325.773 108.399 327.099 106.094 327.935C112.933 327.443 119.612 325.65 125.765 322.656C134.359 318.656 142.113 313.178 150.187 308.264C166.728 298.182 184.591 290.396 203.276 285.123C204.954 284.642 207.757 282.235 207.572 280.525C207.58 280.492 207.58 280.458 207.572 280.425C196.377 280.11 186.743 271.212 176.991 266.215Z" fill="#F9C22D"/>
<g style="mix-blend-mode:multiply" opacity="0.55">
<path d="M190.52 275.581C183.076 275.459 175.868 278.142 170.378 283.077C163.665 288.595 157.32 294.312 148.559 296.256C137.8 298.628 130.096 292.088 125.329 283.818C121.871 291.066 121.62 299.452 119.387 307.129C117.877 312.318 116.366 320.077 112.22 324.08C110.49 325.79 108.399 327.106 106.094 327.935C112.933 327.446 119.612 325.668 125.765 322.697C134.359 318.726 142.113 313.29 150.187 308.414C166.728 298.409 184.591 290.681 203.276 285.449C204.954 284.971 207.757 282.582 207.572 280.885C207.58 280.853 207.58 280.819 207.572 280.787C201.494 280.712 195.569 278.903 190.52 275.581Z" fill="#F2CC49"/>
</g>
<g style="mix-blend-mode:multiply" opacity="0.55">
<path d="M164.853 293.379C153.725 296.012 146.896 300.649 138.733 308.546C134.669 312.436 130.404 316.614 125.973 320.605L126.639 320.316C135.068 316.223 142.781 310.618 150.794 305.523C160.243 299.637 170.136 294.526 180.378 290.237C174.915 290.917 169.467 292.275 164.853 293.379Z" fill="#D68902"/>
</g>
<path d="M159.171 264.471C157.907 264.017 156.509 263.935 155.187 264.237C153.865 264.538 152.692 265.208 151.844 266.144C151.477 266.522 151.229 266.977 151.124 267.464C151.064 267.704 151.07 267.954 151.144 268.192C151.217 268.429 151.355 268.648 151.545 268.83C151.941 269.092 152.414 269.251 152.909 269.286C153.404 269.322 153.9 269.232 154.339 269.029C155.76 268.557 157.027 267.788 158.029 266.789C158.57 266.324 158.895 265.701 158.942 265.039C158.925 264.379 159.926 264.348 159.171 264.471Z" fill="#E9A000"/>
<path d="M146.529 274.964C145.808 274.558 144.977 274.432 144.178 274.606C143.379 274.78 142.661 275.243 142.148 275.917C141.88 276.218 141.714 276.606 141.675 277.019C141.637 277.432 141.729 277.846 141.937 278.197C142.215 278.441 142.546 278.606 142.899 278.678C143.253 278.75 143.618 278.726 143.961 278.609C144.733 278.506 145.47 278.205 146.107 277.73C146.424 277.484 146.662 277.141 146.791 276.747C146.92 276.353 146.933 275.926 146.828 275.524C146.564 274.758 147.092 274.384 146.529 274.964Z" fill="#E9A000"/>
<path d="M164.521 280.484C163.59 279.554 162.378 278.953 161.071 278.774C159.764 278.595 158.433 278.848 157.284 279.494C156.135 280.14 155.231 281.143 154.711 282.349C154.19 283.555 154.082 284.898 154.403 286.171C154.475 286.551 154.631 286.91 154.858 287.224C155.085 287.538 155.379 287.799 155.718 287.988C156.106 288.115 156.516 288.165 156.923 288.134C157.331 288.103 157.728 287.991 158.092 287.806C160.102 286.982 161.864 285.656 163.206 283.954C163.754 283.319 165.16 281.102 164.521 280.484Z" fill="#E9A000"/>
<path d="M179.842 268.593C178.928 269.057 178.014 270.085 178.361 271.133C178.709 272.182 179.86 272.504 180.847 272.424C181.434 272.409 182.01 272.243 182.529 271.94C182.791 271.794 183.018 271.58 183.19 271.317C183.362 271.054 183.473 270.749 183.516 270.428C183.533 269.98 183.415 269.539 183.18 269.174C182.945 268.809 182.606 268.541 182.218 268.412C181.433 268.141 180.585 268.205 179.842 268.593Z" fill="#E9A000"/>
<path d="M191.104 278.412C190.375 278.112 189.605 277.883 188.81 277.731C188.003 277.587 187.159 277.706 186.46 278.064C186.118 278.244 185.858 278.51 185.72 278.821C185.582 279.133 185.573 279.472 185.696 279.788C185.847 280.067 186.088 280.308 186.393 280.486C186.698 280.664 187.056 280.773 187.43 280.801C188.178 280.842 188.929 280.775 189.649 280.605C190.182 280.536 190.694 280.388 191.159 280.166C191.388 280.049 191.575 279.885 191.702 279.692C191.83 279.498 191.893 279.281 191.887 279.062C191.835 278.86 191.721 278.672 191.554 278.516C191.388 278.359 191.175 278.24 190.936 278.17C190.47 278.003 191.551 278.593 191.104 278.412Z" fill="#E9A000"/>
<path d="M177.929 285.723C176.77 285.187 175.487 284.943 174.202 285.013C173.56 285.06 172.941 285.267 172.408 285.614C171.874 285.962 171.445 286.437 171.162 286.993C170.91 287.558 170.896 288.196 171.123 288.771C171.351 289.347 171.802 289.815 172.382 290.077C173.103 290.291 173.875 290.291 174.597 290.077C175.513 289.9 176.376 289.528 177.122 288.988C177.489 288.712 177.77 288.345 177.936 287.926C178.103 287.508 178.148 287.054 178.067 286.613C177.826 285.706 178.771 285.327 177.929 285.723Z" fill="#E9A000"/>
<path d="M149.984 293.533C148.989 293.748 148.082 294.223 147.369 294.902C147.202 295.077 147.074 295.281 146.994 295.502C146.914 295.724 146.884 295.958 146.904 296.19C146.925 296.423 146.996 296.65 147.113 296.856C147.23 297.063 147.391 297.245 147.587 297.392C147.924 297.538 148.298 297.594 148.668 297.556C149.037 297.517 149.388 297.385 149.683 297.174C150.318 296.827 150.79 296.272 151.007 295.618C151.107 295.287 151.108 294.937 151.011 294.605C150.914 294.274 150.721 293.973 150.454 293.735C149.9 293.284 150.672 293.315 149.984 293.533Z" fill="#E9A000"/>
<path d="M131.063 300.789C130.028 301.037 129.094 301.576 128.38 302.337C127.667 303.097 127.207 304.043 127.059 305.056C126.951 305.731 127.064 306.422 127.382 307.034C127.551 307.337 127.802 307.59 128.109 307.767C128.416 307.944 128.767 308.038 129.126 308.039C130.143 308.039 130.853 307.096 131.386 306.261C131.919 305.427 132.306 304.715 132.742 303.989C133.009 303.642 133.186 303.241 133.259 302.816C133.332 302.391 133.299 301.956 133.162 301.546C132.961 301.252 132.676 301.019 132.342 300.874C132.007 300.729 131.637 300.678 131.273 300.727C130.611 300.789 131.774 300.619 131.063 300.789Z" fill="#E9A000"/>
<g style="mix-blend-mode:screen" opacity="0.32">
<path d="M174.695 267.273C172.563 264.598 169.506 262.811 166.122 262.262C162.768 261.74 159.343 261.905 156.056 262.746C148.194 264.594 141.032 268.653 135.421 274.44C133.637 275.972 132.504 278.122 132.25 280.454C132.352 281.791 132.85 283.068 133.68 284.123C134.51 285.179 135.635 285.965 136.914 286.384C139.485 287.169 142.212 287.307 144.849 286.785C151.182 285.77 157.375 284.026 163.303 281.59C165.788 280.756 168.155 279.611 170.349 278.182C172.473 276.708 174.048 274.576 174.829 272.118C175.205 270.89 175.249 269.584 174.954 268.334C174.659 267.084 174.037 265.934 173.151 265.001L174.695 267.273Z" fill="#FAD15F"/>
</g>
<path d="M66.3363 123.753L78.6985 145.71L131.204 122.556L98.137 108.012C98.137 108.012 74.4427 118.134 66.3363 123.753Z" fill="#EFEFEC"/>
<path d="M143.758 99.9408L128.065 123.719L204.442 118.138L193.052 95.4457L143.758 99.9408Z" fill="#EFEFEC"/>
<path d="M165.927 138.253L204.442 118.483L127.379 121.997L78.8914 145.71L165.927 138.253Z" fill="#E2B58B"/>
<path d="M86.2152 68.8874L129.001 130.002L133.297 127.263L93.6055 62.9835C93.6055 62.9835 86.249 63.3748 86.2152 68.8874Z" fill="#716361"/>
<path d="M101.909 70.2041L140.245 133.144L144.806 130.79L109.864 65.0788C109.864 65.0788 102.389 64.8784 101.909 70.2041Z" fill="#716361"/>
<path d="M107.367 218.306L162.558 219.012L189.19 201.585L204.442 118.483L127.379 122.046L78.8914 146.094L107.367 218.306Z" fill="#EFEFEC"/>
<g style="mix-blend-mode:multiply">
<path d="M166.221 120.578L127.646 122.337L78.8914 146.313L107.524 218.308L163.019 219.012L179.332 208.423L166.221 120.578Z" fill="#EAE6DC"/>
</g>
<path d="M162.592 219.012L189.203 201.585L204.442 118.483L166.159 127.39L162.592 219.012Z" fill="#EFEFEC"/>
<path d="M142.489 185.502C137.843 187.018 133.002 187.896 128.108 188.11C123.561 188.609 118.964 188.451 114.464 187.642L115.202 200.163L144.806 198.876L142.626 185.937L142.489 185.502ZM123.491 197.405L117.931 197.672L117.485 191.52C117.485 190.417 122.822 190.049 122.925 191.169L123.491 197.405ZM131.866 197.02L126.031 197.287L125.327 191.019C125.207 189.882 130.888 189.498 131.025 190.651L131.866 197.02ZM140.67 196.619L134.526 196.903L133.685 190.517C133.531 189.364 139.468 188.963 139.657 190.133L140.67 196.619Z" fill="#716361"/>
<path d="M120.742 191.805L121.131 197.021L122.834 196.928L122.459 192.242C122.43 191.883 121.564 191.727 120.742 191.805Z" fill="#716361"/>
<path d="M119.924 191.816H119.566H119.259H119.021H118.935H118.765H118.663C118.645 191.866 118.645 191.92 118.663 191.97L118.68 197.021L120.742 196.929L120.384 191.785L119.924 191.816Z" fill="#716361"/>
<path d="M128.065 190.762L128.793 197.021L131.204 196.911L130.515 191.404C130.439 190.835 129.233 190.67 128.065 190.762Z" fill="#716361"/>
<path d="M128.182 190.775H127.857H127.577H127.356H127.208H127.12L127.031 190.867C127.015 190.927 127.015 190.992 127.031 191.051L127.474 196.579L129.112 197.021L128.581 190.738L128.182 190.775Z" fill="#716361"/>
<path d="M136.436 190.757L137.285 195.974L139.574 195.884L138.777 191.265C138.777 190.831 137.528 190.682 136.436 190.757Z" fill="#716361"/>
<path d="M136.026 190.768H135.566H135.182H134.895H134.799H134.588H134.473H134.358C134.338 190.817 134.338 190.87 134.358 190.919L135.125 195.432L137.482 195.974L136.543 190.738L136.026 190.768Z" fill="#716361"/>
<path d="M107.915 184.775C111.007 186.242 114.321 187.119 117.703 187.363H117.787C121.133 187.674 124.498 187.674 127.844 187.363C131.354 187.083 134.836 186.49 138.253 185.591C142.155 184.663 145.879 183.038 149.265 180.787C150.824 179.635 149.701 179.015 148.712 179.28C142.845 181.053 140.331 181.354 136.979 181.053L118.105 182.826C114.857 183.753 111.451 183.88 108.149 183.198C107.261 183.251 106.523 184.013 107.915 184.775Z" fill="#716361"/>
<path d="M117.603 175.238L118.088 182.361L137.482 180.388L136.443 172.936C133.34 174.035 130.126 174.746 126.867 175.055C123.795 175.473 120.688 175.534 117.603 175.238ZM128.235 176.206C128.235 175.475 131.802 175.037 131.889 175.786L132.477 179.895L128.772 180.279L128.235 176.206ZM121.672 176.973C121.672 176.242 125.135 175.822 125.135 176.571L125.551 180.607L122.088 180.973L121.672 176.973Z" fill="#716361"/>
<path d="M112.934 173.58C115.163 174.457 117.52 174.934 119.903 174.989C122.195 175.092 124.492 175.003 126.77 174.722C129.15 174.437 131.503 173.954 133.808 173.277C136.405 172.573 138.879 171.448 141.138 169.942C142.186 169.158 141.465 168.765 140.795 168.997C129.62 172.778 126.118 168.748 126.118 168.748C126.118 168.748 123.646 173.545 113.037 172.707C112.453 172.6 111.938 173.117 112.934 173.58Z" fill="#716361"/>
<path d="M123.88 177.149L124.075 180.266L124.927 180.15L124.732 177.399C124.732 177.149 124.294 177.083 123.88 177.149Z" fill="#716361"/>
<path d="M130.158 176.104L130.406 179.219L131.204 179.088L130.978 176.35C130.956 176.088 130.514 176.038 130.158 176.104Z" fill="#716361"/>
<path d="M129.546 176.572H129.401H129.279H129.179H129.112L129.323 179.219L130.158 179.108L129.902 176.078H129.746L129.546 176.572Z" fill="#716361"/>
<g style="mix-blend-mode:multiply" opacity="0.55">
<g style="mix-blend-mode:multiply" opacity="0.55">
<path d="M96.8938 177.407L153.255 174.419C153.255 174.419 165.007 142.342 166.3 138.431C168.399 132.337 167.492 128.359 170.531 122.669L107.286 132.052L79.1141 145.984L79.5003 146.991C84.0166 151.272 96.8938 177.407 96.8938 177.407Z" fill="#D6C2A6"/>
</g>
</g>
<path d="M178.082 126.861C178.822 122.981 175.702 119.438 175.268 115.491C175.114 113.942 175.375 112.379 176.022 110.976C176.67 109.573 177.678 108.386 178.935 107.547C179.464 107.167 180.08 106.941 180.72 106.892C181.038 106.875 181.355 106.946 181.638 107.1C181.921 107.253 182.159 107.483 182.328 107.765C182.891 108.84 181.974 110.1 181.138 110.956C181.472 111.086 181.828 111.141 182.184 111.119C182.539 111.096 182.886 110.996 183.203 110.826C183.519 110.655 183.798 110.417 184.021 110.127C184.245 109.837 184.407 109.502 184.499 109.143C184.64 108.401 184.547 107.632 184.234 106.951C183.921 106.27 183.404 105.713 182.762 105.364C182.112 105.039 181.401 104.87 180.68 104.87C179.959 104.87 179.247 105.039 178.597 105.364C177.28 106.001 176.136 106.971 175.268 108.185C174.107 109.584 173.225 111.211 172.673 112.97C172.12 114.729 171.909 116.585 172.051 118.43C172.232 120.273 172.889 122.031 173.951 123.516C175.013 125.001 176.441 126.157 178.082 126.861Z" fill="#FBDF6A"/>
<path d="M115.296 139.427C115.88 135.194 115.266 130.888 113.52 126.968C112.616 125.017 111.206 123.327 109.427 122.064C107.648 120.801 105.562 120.008 103.373 119.761C102.528 119.638 101.665 119.724 100.864 120.011C100.063 120.298 99.3494 120.777 98.7895 121.403C98.3416 122.143 98.1873 123.017 98.3554 123.86C98.5235 124.703 99.0026 125.458 99.7028 125.983C100.429 126.475 101.294 126.739 102.18 126.739C103.067 126.739 103.931 126.475 104.658 125.983C105.366 125.467 105.932 124.789 106.307 124.011C106.682 123.232 106.853 122.376 106.806 121.518C106.678 119.792 105.887 118.175 104.591 116.987C104.077 116.445 103.448 116.017 102.747 115.733C102.046 115.45 101.29 115.318 100.531 115.346C99.7774 115.403 99.0721 115.73 98.5531 116.264C98.0341 116.798 97.7385 117.501 97.724 118.235C98.5403 117.673 99.5204 117.38 100.521 117.398C101.521 117.417 102.489 117.745 103.283 118.336C104.077 118.927 104.656 119.749 104.933 120.682C105.211 121.615 105.174 122.61 104.827 123.52C104.556 124.288 104.002 124.932 103.271 125.326C102.9 125.508 102.482 125.578 102.069 125.528C101.657 125.479 101.269 125.311 100.954 125.047C100.614 124.68 100.426 124.203 100.426 123.709C100.426 123.215 100.614 122.739 100.954 122.371C101.311 122.016 101.752 121.751 102.238 121.6C102.725 121.448 103.242 121.414 103.745 121.501C104.749 121.683 105.694 122.094 106.502 122.7C108.904 124.405 110.727 126.767 111.739 129.483C112.752 132.2 112.906 135.147 112.184 137.949L115.296 139.427Z" fill="#FBDF6A"/>
<g style="mix-blend-mode:multiply">
<path d="M160.5 183.307C158.82 184.376 157.04 185.361 155.377 186.18C145.049 191.19 133.949 190.589 123.47 186.18C113.079 181.75 104.251 174.342 98.1117 164.902C95.008 159.848 92.4844 154.465 90.5882 148.851L84.1227 152.025L109.011 214.623L158.955 214.823C159.559 210.631 160.5 183.307 160.5 183.307Z" fill="#F1EAE2"/>
</g>
<path d="M200.561 121.535C198.939 119.442 197.102 117.515 195.078 115.784C193.042 114.034 190.486 112.958 187.779 112.712C185.639 112.667 183.549 113.344 181.865 114.628C180.181 115.912 179.008 117.724 178.545 119.754C178.241 117.234 176.953 114.924 174.946 113.3C172.94 111.668 170.724 110.295 168.354 109.216C166.094 108.909 163.795 109.053 161.595 109.637C159.394 110.221 157.339 111.234 155.555 112.614C153.895 113.753 152.704 115.426 152.191 117.336C151.963 119.652 152.369 121.985 153.368 124.1C154.554 127.817 156.251 131.362 158.414 134.638C159.428 136.053 160.652 137.314 162.047 138.38L183.204 135.39C188.973 131.926 194.674 128.315 200.241 124.557C200.733 124.3 201.111 123.875 201.301 123.365C201.317 123.026 201.26 122.688 201.132 122.373C201.005 122.058 200.81 121.772 200.561 121.535Z" fill="#FBDF6A"/>
<path d="M197.535 122.615L193.675 119.628C192.097 118.249 190.282 117.194 188.324 116.519C187.362 116.183 186.326 116.155 185.348 116.437C184.37 116.719 183.496 117.298 182.839 118.1C182.281 119.121 181.855 120.214 181.569 121.35C181.47 122.023 181.161 122.644 180.689 123.118C180.218 123.592 179.609 123.891 178.957 123.971C178.305 124.051 177.646 123.906 177.081 123.56C176.516 123.213 176.076 122.684 175.829 122.052C174.982 120.805 174.525 119.312 173.73 118.012C172.852 116.656 171.688 115.524 170.328 114.702C168.967 113.88 167.444 113.39 165.873 113.269C162.812 113.097 159.782 113.98 157.255 115.781C154.784 117.54 152.596 119.692 150.771 122.158C150.161 122.931 149.636 124.213 150.466 124.863C151.296 125.513 152.057 124.863 152.667 124.371C154.529 122.808 156.239 121.051 158.204 119.611C160.164 118.069 162.521 117.165 164.976 117.011C166.231 116.952 167.48 117.214 168.614 117.775C169.748 118.335 170.731 119.177 171.478 120.225C172.256 121.438 172.612 122.878 173.374 124.073C174.251 125.422 175.596 126.369 177.128 126.716C178.661 127.062 180.264 126.783 181.603 125.935C182.706 124.956 183.685 123.834 184.515 122.597C184.928 121.991 185.459 121.481 186.075 121.103C186.691 120.725 187.376 120.485 188.087 120.401C188.903 120.506 189.69 120.787 190.395 121.226C191.101 121.665 191.71 122.251 192.185 122.948C193.115 124.357 194.313 125.553 195.706 126.462C196.38 126.842 197.168 126.936 197.907 126.725C198.274 126.609 198.596 126.378 198.829 126.063C199.063 125.748 199.196 125.366 199.211 124.969C199.194 123.915 198.331 123.212 197.535 122.615Z" fill="#E5B348"/>
<path d="M135.389 114.506C135.389 114.506 142.41 103.227 152.633 106.52C162.857 109.813 162.591 120.171 162.591 120.171C162.591 120.171 157.098 135.255 147.206 135.238C137.315 135.221 136.999 118.379 135.389 114.506Z" fill="#BE7139"/>
<g style="mix-blend-mode:multiply" opacity="0.55">
<path d="M158.874 110.347C158.445 112.176 157.504 113.832 156.169 115.105C153.497 117.587 149.53 119.776 146.028 117.518C143.041 115.553 141.812 111.968 138.875 110.106C137.558 111.342 136.388 112.737 135.389 114.26C137.049 118.173 137.049 135.238 147.19 135.238C157.331 135.238 162.592 119.983 162.592 119.983C162.396 116.436 161.091 113.053 158.874 110.347Z" fill="#C47F4C"/>
</g>
<path d="M142.044 142.065L167.883 138.56L173.055 137.454C171.299 137.167 169.565 136.752 167.867 136.212C164.063 134.171 162.562 130.428 164.247 126.838C165.365 124.439 169.335 118.535 164.931 116.63C164.207 116.351 163.435 116.229 162.662 116.273C160.969 116.313 159.308 116.757 157.814 117.569C156.319 118.382 155.032 119.54 154.055 120.951C152.186 123.69 150.985 126.974 147.649 128.25C141.394 130.717 143.312 122.21 141.811 118.808C141.116 117.453 140.116 116.287 138.892 115.405C137.041 113.828 134.811 112.786 132.432 112.385C130.053 111.984 127.612 112.24 125.363 113.125C122.695 114.42 120.529 116.588 119.208 119.284C117.948 121.815 117.017 124.503 116.439 127.28C115.988 129.305 115.338 132.061 113.253 132.98C111.168 133.898 108.632 131.023 107.164 129.577C104.362 126.974 99.2572 126.174 95.8042 126.515C89.4487 127.229 84.5277 133.881 86.763 140.125C88.2715 143.738 90.959 146.708 94.3696 148.53L94.4697 148.428C94.9201 148.632 94.6365 148.683 95.0702 148.598C96.8217 150.112 99.6242 149.959 101.843 149.806C106.564 149.5 111.051 149.091 115.788 148.649C123.512 147.934 131.118 146.624 138.725 145.995L142.878 145.689L142.044 142.065Z" fill="#FBDF6A"/>
<path d="M147.734 135.437C149.675 134.566 154.285 127.467 156.48 130.113C158.168 132.249 156.885 136.785 157.425 139.217L157.527 139.546L162.592 138.823C161.085 137.851 160.001 136.37 159.553 134.665C159.174 133.169 159.22 131.601 159.688 130.129C159.97 129.461 160.104 128.742 160.081 128.02C160.057 127.298 159.877 126.588 159.553 125.938C158.827 125.511 157.577 125.051 156.919 125.659C156.834 125.659 155.585 126.596 154.302 127.303C153.249 127.955 152.25 128.686 151.313 129.488C149.229 131.201 146.709 132.337 144.019 132.775C140.98 133.12 139.984 131.296 139.376 128.847C138.869 126.875 138.768 123.736 137.164 122.076C136.671 121.581 136.076 121.192 135.419 120.935C134.761 120.677 134.056 120.557 133.348 120.581C130.495 120.55 127.718 121.472 125.48 123.194C122.792 125.203 120.725 127.892 119.502 130.967C118.878 132.611 118.371 134.254 117.696 135.898C116.396 138.971 113.964 140.45 110.587 138.034C108.156 136.276 106.569 134.073 103.681 132.824C100.119 131.263 96.6912 130.918 93.5507 132.677C87.1345 136.21 91.5752 143.408 97.4679 146.054C98.4641 146.498 98.5317 147.385 99.3421 146.054C100.153 144.723 96.6406 142.964 95.9652 142.044C92.9935 138.412 97.8732 135.668 101.453 136.276C105.032 136.884 107.21 140.286 110.739 141.255C112.233 141.597 113.794 141.535 115.255 141.078C116.716 140.62 118.021 139.784 119.03 138.659C121.579 135.963 123.285 132.381 125.378 129.357C126.729 127.418 130.123 124.427 132.976 126.629C135.475 128.502 135.593 132.446 137.89 134.665C140.693 137.327 144.711 136.818 147.734 135.437Z" fill="#E5B348"/>
<path d="M127.042 144.033C127.042 144.033 125.843 125.374 140.899 128.199C155.492 130.908 156.315 141.073 156.315 141.073C156.315 141.073 132.335 149.099 127.042 144.033Z" fill="#BE7139"/>
<path d="M193.98 127.272C193.98 127.272 182.218 115.104 171.682 126.491C165.515 133.16 171.413 140.474 171.413 140.474L193.98 127.272Z" fill="#BE7139"/>
<g style="mix-blend-mode:multiply" opacity="0.55">
<path d="M200.577 121.71L199.601 120.495C196.741 118.538 194.302 116.344 190.282 118.048C187.237 120.478 185.235 124.899 181.871 126.975C178.506 129.051 173.712 128.325 170.297 129.861C169.243 131.305 167.958 132.565 166.496 133.59C165.776 134.673 164.832 135.589 163.73 136.276C162.627 136.963 161.39 137.405 160.103 137.572C158.535 137.855 156.923 137.782 155.386 137.359C153.849 136.935 152.426 136.172 151.221 135.126C151.087 135.126 145.788 133.641 145.67 133.641C137.915 134.349 142.861 139.024 127.704 138.028C125.894 139.201 123.802 139.866 121.649 139.952C117.695 141.96 112.279 142.196 107.67 142.685C104.692 142.989 99.4941 143.934 96.2307 142.382C95.1539 141.881 93.9643 141.675 92.7825 141.785C91.6008 141.895 90.469 142.316 89.502 143.006L88.3076 143.867C89.8569 145.74 91.725 147.322 93.8252 148.541L93.9261 148.44C94.3803 148.642 94.0943 148.693 94.5317 148.608C96.298 150.11 99.1241 149.958 101.361 149.807C106.122 149.503 110.647 149.098 115.424 148.659C123.213 147.95 130.884 146.651 138.554 146.027L142.743 145.723L142.625 145.217C147.064 144.265 151.445 143.059 155.746 141.605C155.7 141.148 155.61 140.696 155.477 140.255L167.909 138.568L169.591 138.214C169.94 139.044 170.374 139.836 170.886 140.576L177.245 136.897L183.2 136.02C187.91 133.101 192.553 130.046 197.145 126.924C197.356 126.911 197.566 126.872 197.767 126.806C198.03 126.719 198.272 126.576 198.475 126.386C198.678 126.197 198.838 125.966 198.945 125.709L200.24 124.832C200.733 124.566 201.11 124.128 201.3 123.6C201.319 123.252 201.264 122.903 201.139 122.578C201.015 122.252 200.823 121.956 200.577 121.71Z" fill="#C47F4C"/>
</g>
<path d="M78.8914 145.129L97.8167 169.795L149.352 165.562L166.777 138.38L78.8914 145.129Z" fill="#EFEFEC"/>
<g style="mix-blend-mode:multiply">
<path d="M110.811 144.663L82.0302 146.919L99.4484 168.748L143.759 165.037C132.652 158.485 121.748 151.549 110.811 144.663Z" fill="#F2EBE5"/>
</g>
<g style="mix-blend-mode:multiply">
<path d="M180.199 184.016L182.685 139.427L178.597 140.035L177.912 184.405L162.726 215.347L162.592 219.012L164.361 217.846L178.98 192.866L188.46 201.919L189.111 201.497L189.795 197.731L180.199 184.016Z" fill="#EBE5DF"/>
</g>
<g style="mix-blend-mode:multiply" opacity="0.55">
<path d="M198.596 150.954L204.442 118.483L166.777 138.472C166.777 138.472 175.948 161.275 180.222 166.653C183.825 164.693 198.596 150.954 198.596 150.954Z" fill="#DBC9B0"/>
</g>
<path d="M181.809 158.276L209.674 138.523L205.374 118.483L166.777 138.573L181.809 158.276Z" fill="#EFEFEC"/>
<g style="mix-blend-mode:multiply">
<path d="M169.916 140.406L181.766 155.134L207.581 137.687L206.819 134.191C195.24 135.81 181.461 138.771 169.916 140.406Z" fill="#F2EBE5"/>
</g>
<ellipse cx="110.802" cy="232.101" rx="3.6619" ry="3.66509" fill="#73A624"/>
<path d="M189.667 237.932C188.58 239.844 185.468 239.276 183.772 238.256C182.075 237.236 179.799 234.808 181.734 231.586C183.668 228.363 186.989 230.46 188.685 231.48C190.382 232.501 190.754 236.019 189.667 237.932Z" fill="#73A624"/>
<path d="M221.988 158.002C223.878 159.659 221.806 163.753 219.798 165.907C217.79 168.062 213.784 170.839 210.647 167.91C207.51 164.981 211.565 160.774 213.573 158.619C215.582 156.464 220.099 156.345 221.988 158.002Z" fill="#BE7139"/>
<path d="M264.203 332.074C259.696 336.164 253.241 337.319 250.716 334.532C248.191 331.745 248.166 327.978 252.672 323.887C257.179 319.797 260.476 319.813 263.001 322.6C265.526 325.387 268.709 327.984 264.203 332.074Z" fill="#FF3333"/>
</svg>
