<svg width="393" height="452" viewBox="0 0 393 452" fill="none" xmlns="http://www.w3.org/2000/svg">
<path d="M320.481 356.797C233.738 406.553 108.792 373.333 59.4358 288.401C10.0798 203.469 9.02586 119.544 95.7693 69.7874C182.513 20.0312 246.423 50.4521 295.779 135.384C345.135 220.316 407.225 307.041 320.481 356.797Z" fill="#FBDF6A" fill-opacity="0.21"/>
<path d="M344.335 99.0049C331.932 88.3527 330.963 66.7151 342.149 53.8588C353.335 41.0025 366.802 35.8007 379.205 46.4528C391.609 57.105 389.941 68.9785 378.755 81.8348C367.569 94.6912 356.739 109.657 344.335 99.0049Z" fill="#FBDF6A" fill-opacity="0.21"/>
<path d="M379.056 350.062C390.649 361.58 386.284 386.958 370.138 402.998C353.993 419.038 332.562 421.39 325.565 414.742C318.569 408.094 318.902 389.118 335.047 373.078C351.192 357.038 367.462 338.544 379.056 350.062Z" fill="#FBDF6A" fill-opacity="0.21"/>
<path d="M-0.143137 287.753C15.6934 283.537 35.6321 299.982 41.5416 321.893C47.4512 343.805 38.785 363.42 29.4921 366.116C20.1991 368.812 3.82461 359.038 -2.08494 337.126C-7.99449 315.214 -15.9797 291.969 -0.143137 287.753Z" fill="#FBDF6A" fill-opacity="0.21"/>
<path d="M85.1681 129.675L136.279 206.465C136.279 206.465 165.214 204.704 176.203 188.916L149.259 101.381C149.259 101.381 105.04 125.564 85.1681 129.675Z" fill="#BA5F49"/>
<g style="mix-blend-mode:multiply" opacity="0.75">
<path d="M152.732 112.376L149.33 101.327C149.33 101.327 105.11 125.51 85.2388 129.621L96.1016 145.946C119.371 140.12 132.705 132.39 152.732 112.376Z" fill="#8F5243"/>
</g>
<path d="M155.988 148.916C151.525 139.541 139.97 135.668 130.178 140.266C120.387 144.864 116.068 156.192 120.531 165.567C124.994 174.943 136.549 178.816 146.341 174.218C156.132 169.62 160.451 158.292 155.988 148.916Z" fill="#CCB1B1"/>
<path d="M151.599 150.506C153.176 154.033 153.282 158.037 151.895 161.64C150.508 165.243 147.741 168.153 144.199 169.732C142.484 170.625 140.605 171.163 138.675 171.314C136.745 171.466 134.804 171.227 132.969 170.614C131.134 170 129.442 169.023 127.997 167.743C126.551 166.463 125.381 164.905 124.557 163.164C123.733 161.423 123.272 159.534 123.202 157.612C123.133 155.689 123.455 153.773 124.15 151.978C124.846 150.183 125.9 148.546 127.248 147.167C128.597 145.788 130.213 144.695 131.999 143.953C135.473 142.25 139.485 141.984 143.158 143.212C146.831 144.44 149.866 147.062 151.599 150.506Z" fill="#F0E1DD"/>
<path d="M134.189 163.151C133.882 162.063 133.902 160.91 134.246 159.834C134.591 158.757 135.244 157.805 136.127 157.093C137.176 156.003 138.628 155.393 139.669 154.365C140.711 153.338 140.466 151.751 140.267 150.298C140.08 149.072 139.824 147.858 139.5 146.661C136.15 146.873 132.648 149.907 131.035 154.419C129.057 159.915 130.614 165.509 134.528 166.892C135.03 167.066 135.556 167.165 136.088 167.184C135.3 165.917 134.663 164.563 134.189 163.151Z" fill="#8F4B46"/>
<path d="M141.66 146.886C141.9 147.848 142.108 148.842 142.286 149.87C142.565 150.811 142.624 151.802 142.459 152.769C142.295 153.736 141.911 154.652 141.336 155.449C139.799 157.112 136.077 158.484 135.937 161.213C136.124 163.275 136.946 165.23 138.292 166.812C139.93 166.164 141.4 165.158 142.593 163.869C143.786 162.58 144.672 161.04 145.184 159.364C147.113 153.876 145.57 148.3 141.66 146.886Z" fill="#8F4B46"/>
<g style="mix-blend-mode:screen">
<path d="M165.337 193.195C166.737 192.118 168.437 190.809 170.173 189.472C164.928 175.079 147.891 128.195 142.118 111.671C139.381 113.188 136.557 114.543 133.66 115.731C139.662 131.712 157.13 176.968 164.436 193.748C164.788 193.618 165.068 193.431 165.337 193.195Z" fill="#8F524D"/>
</g>
<g style="mix-blend-mode:multiply" opacity="0.55">
<path d="M129.565 161.44C120.971 153.403 113.849 143.582 106.182 134.662C104.39 132.673 102.742 130.56 101.251 128.34C97.5284 129.793 93.6997 130.96 89.7981 131.832L136.599 202.443C136.599 202.443 162.738 201.059 172.66 186.627L169.637 176.864C155.145 177.876 140.932 172.05 129.565 161.44Z" fill="#8B4B3A"/>
</g>
<g style="mix-blend-mode:multiply" opacity="0.55">
<path d="M108.837 125.853C106.081 127.045 100.23 128.703 97.6457 129.679C105.648 143.245 141.539 200.161 142.561 201.798C145.859 201.231 149.118 200.455 152.315 199.473C149.34 194.859 110.554 129.435 108.837 125.853Z" fill="#A75640"/>
</g>
<g style="mix-blend-mode:screen">
<path d="M150.771 135.305C151.053 136.252 151.047 137.259 150.754 138.202C150.462 139.145 149.895 139.981 149.126 140.605C148.357 141.229 147.42 141.614 146.431 141.71C145.443 141.807 144.448 141.612 143.571 141.148C142.693 140.685 141.973 139.975 141.5 139.107C141.027 138.239 140.823 137.252 140.912 136.269C141.002 135.286 141.381 134.352 142.003 133.583C142.625 132.814 143.462 132.244 144.409 131.946C145.048 131.751 145.72 131.683 146.386 131.746C147.052 131.81 147.7 132.003 148.29 132.315C148.881 132.627 149.405 133.051 149.831 133.565C150.256 134.078 150.576 134.669 150.771 135.305Z" fill="#B28784"/>
</g>
<g style="mix-blend-mode:screen">
<path d="M150.149 126.146C150.286 126.702 150.257 127.285 150.065 127.824C149.873 128.364 149.527 128.836 149.069 129.183C148.612 129.529 148.062 129.736 147.487 129.777C146.913 129.817 146.339 129.691 145.836 129.413C145.333 129.134 144.922 128.716 144.655 128.209C144.387 127.703 144.274 127.129 144.329 126.56C144.385 125.99 144.606 125.449 144.966 125.003C145.327 124.557 145.81 124.225 146.357 124.048C146.745 123.936 147.151 123.901 147.552 123.946C147.953 123.991 148.341 124.115 148.694 124.31C149.047 124.505 149.357 124.768 149.607 125.083C149.856 125.398 150.041 125.759 150.149 126.146Z" fill="#B28784"/>
</g>
<path d="M78.251 125.024L78.4826 137.134C78.4826 137.134 99.6544 137.743 124.351 123.716C149.048 109.689 157.897 101.297 157.897 101.297L148.917 90.7658C148.917 90.7658 125.384 87.7479 78.251 125.024Z" fill="#F2F2F2"/>
<g style="mix-blend-mode:screen" opacity="0.9">
<path d="M87.8063 130.913C88.151 126.635 88.7302 122.379 89.5415 118.163L89.8312 116.39C86.1924 118.994 82.3073 121.901 78.2922 125.077L78.4826 137.134C81.3544 137.131 84.2221 136.92 87.0627 136.502C87.2157 134.628 87.4639 132.763 87.8063 130.913Z" fill="#F2F2F2"/>
</g>
<g style="mix-blend-mode:screen" opacity="0.9">
<path d="M129.628 120.667C150.316 108.515 157.862 101.324 157.862 101.324L148.917 90.766C144.782 90.5951 140.647 91.1199 136.689 92.318C134.901 101.839 131.94 111.165 129.628 120.667Z" fill="#F2F2F2"/>
</g>
<path d="M78.2509 125.024L78.4825 137.134C78.4825 137.134 99.6544 137.742 124.351 123.716C149.048 109.689 157.897 101.297 157.897 101.297L148.917 90.7658C148.917 90.7658 129.335 114.185 78.2509 125.024Z" fill="#DEDEDE"/>
<g style="mix-blend-mode:screen" opacity="0.65">
<path d="M138.103 100.164C135.711 102.005 132.773 103.872 129.403 105.875C130.677 109.545 132.343 113.279 133.233 115.947C133.46 116.674 133.705 117.388 133.987 118.185C138.782 115.282 142.717 112.731 145.941 110.503C143.085 107.245 140.466 103.79 138.103 100.164Z" fill="#C7CBC9"/>
</g>
<g style="mix-blend-mode:multiply" opacity="0.35">
<path d="M109.434 115.642C101.041 118.995 92.4098 121.731 83.612 123.828C83.6604 124.326 83.7088 124.824 83.7258 125.318C83.9048 129.183 83.7064 132.999 84.2079 136.84C96.0589 135.573 107.594 132.253 118.29 127.03C114.133 124.332 111.013 120.319 109.434 115.642Z" fill="#8F838D"/>
</g>
<path d="M86.057 108.389L87.7967 120.324C98.5741 117.901 108.942 113.943 118.579 108.573C134.708 99.5921 138.956 94.7151 138.956 94.7151L132.354 85.7066C132.354 85.7066 119.955 84.713 102.421 95.0565C96.3059 98.6339 90.7857 103.131 86.057 108.389Z" fill="#F2F2F2"/>
<g style="mix-blend-mode:screen" opacity="0.9">
<path d="M132.02 89.4586C132.318 89.0041 132.588 88.5143 132.858 88.0245C133.036 87.6565 133.267 87.3167 133.545 87.016L132.433 85.5898C129.995 85.5141 127.557 85.7177 125.166 86.1965C125.053 87.8332 124.905 89.4972 124.716 91.1084C124.527 92.7195 124.318 94.233 124.058 95.8987C126.846 93.9206 129.505 91.7696 132.02 89.4586Z" fill="#F2F2F2"/>
</g>
<g style="mix-blend-mode:screen" opacity="0.9">
<path d="M112.135 102.712C113.302 102.208 114.445 101.638 115.57 101.081C114.947 100.216 114.647 99.1622 114.719 98.1008C114.866 94.9444 115.433 91.7459 115.844 88.6389C114.44 89.1283 112.961 89.7036 111.491 90.3277C110.478 94.7716 109.821 99.3081 109.118 103.823C110.064 103.545 111.106 103.137 112.135 102.712Z" fill="#F2F2F2"/>
</g>
<g style="mix-blend-mode:screen" opacity="0.9">
<path d="M91.0986 108.819C91.2909 108.145 91.5042 107.473 91.7385 106.805C92.1854 105.051 92.65 103.284 93.1421 101.553C90.5933 103.632 88.2232 105.919 86.0567 108.389L86.3172 110.359C87.8907 109.795 89.474 109.281 91.0986 108.819Z" fill="#F2F2F2"/>
</g>
<path d="M113.811 97.9546C105.14 102.493 95.9157 105.901 86.3661 108.095L86.0296 108.354L87.7968 120.324C98.5741 117.901 108.942 113.943 118.579 108.573C134.708 99.5922 138.956 94.7152 138.956 94.7152L132.451 85.8299C126.633 90.4414 120.392 94.5008 113.811 97.9546Z" fill="#DEDEDE"/>
<g style="mix-blend-mode:screen" opacity="0.65">
<path d="M125.667 90.7996C123.813 92.0578 122.065 93.2341 120.232 94.3361C121.701 97.8551 123.638 101.211 125.328 104.504C129.363 102.045 132.307 100.003 134.407 98.443C131.639 95.8395 128.618 93.3468 125.667 90.7996Z" fill="#C7CBC9"/>
</g>
<g style="mix-blend-mode:multiply" opacity="0.35">
<path d="M109.072 104.563C108.261 103.524 107.423 102.45 106.674 101.308C100.179 104.255 93.3903 106.516 86.4193 108.054L86.0827 108.313L87.7968 120.324C97.0914 118.242 106.086 115.01 114.569 110.702C112.563 108.816 110.724 106.762 109.072 104.563Z" fill="#8F838D"/>
</g>
<path d="M92.8336 104.355C97.6151 100.463 102.785 97.0678 108.263 94.2225C113.247 91.9796 118.446 90.2426 123.782 89.0378C119.095 92.3513 114.197 95.36 109.119 98.045C103.853 100.541 98.4101 102.65 92.8336 104.355Z" fill="#A1A8A6"/>
<g style="mix-blend-mode:multiply">
<path d="M103.107 96.6986C102.223 97.238 101.418 98.1681 100.521 98.6898C98.8833 100.113 97.3612 101.662 95.9687 103.322C98.2071 102.557 101.354 101.43 105.108 99.8085C104.643 96.0512 103.628 96.4946 103.107 96.6986Z" fill="#A1A8A6"/>
</g>
<path d="M98.6215 101.561C98.0808 101.668 97.5389 101.155 97.2805 100.424C96.527 98.1857 95.4258 94.4115 95.9594 93.8597C96.3351 92.415 104.081 96.4563 104.041 96.7688C103.894 97.671 103.506 99.7174 102.964 100.078C101.592 100.767 100.131 101.266 98.6215 101.561Z" fill="#DEDEDE"/>
<g style="mix-blend-mode:screen" opacity="0.65">
<path d="M96.5552 93.5702C98.5797 93.9845 100.784 96.3742 102.929 100.106C103.479 99.683 103.877 97.6853 104.006 96.7966C104.081 96.4568 97.6981 93.254 96.5552 93.5702Z" fill="#DEDEDE"/>
</g>
<path d="M322.485 125.832C316.27 119.087 272.762 120.447 251.692 136.007C244.507 141.307 240.287 149.101 234.585 154.911C206.501 184.074 216.48 205.188 239.717 217.63C252.832 224.63 280.26 224.262 303.525 211.14C326.79 198.018 335.401 186.653 337.739 173.474C342.272 145.189 322.485 125.832 322.485 125.832ZM307.403 174.835C303.924 174.098 298.849 172.426 293.632 171.462C293.471 171.476 293.308 171.476 293.147 171.462C289.784 171.58 286.432 171.912 283.111 172.454C281.789 173.477 280.409 174.423 278.977 175.288C276.201 176.373 273.838 178.296 272.22 180.786C271.648 181.745 270.893 182.583 269.996 183.252C268.802 185.111 267.745 187.052 266.831 189.062C262.07 199.52 257.479 184.074 252.804 180.361C250.295 176.223 273.959 150.489 288.699 152.983C290.633 153.02 292.553 153.325 294.402 153.89L295 154.117C300.389 154.882 305.749 156.214 311.052 157.348C322.371 159.842 318.693 177.385 307.403 174.92V174.835Z" fill="#EE9843"/>
<g style="mix-blend-mode:multiply" opacity="0.65">
<path d="M321.516 125.124C312.649 119.229 271.907 121.071 251.692 136.007C244.507 141.307 240.288 149.101 234.585 154.911C212.632 177.584 213.972 195.552 226.602 208.192L227.771 209.213C233.473 210.148 239.803 209.213 244.65 209.61C253.203 210.545 261.757 219.416 270.31 214.994C278.379 210.8 284.28 210.715 293.119 209.893C301.074 209.128 303.583 199.747 311.48 197.848C314.674 197.111 321.288 197.309 321.659 192.746C321.666 190.568 322.163 188.418 323.113 186.455C326.819 180.191 336.399 180.56 334.061 172.057C332.065 164.943 333.234 157.263 336.912 153.068C334.46 137.736 324.481 128.411 321.516 125.124ZM307.261 174.92C303.782 174.183 298.707 172.511 293.49 171.547C293.328 171.561 293.166 171.561 293.005 171.547C289.642 171.665 286.29 171.997 282.969 172.539C281.647 173.562 280.267 174.508 278.835 175.373C276.059 176.458 273.696 178.381 272.078 180.871C271.506 181.83 270.75 182.668 269.854 183.337C268.66 185.196 267.603 187.137 266.689 189.147C264.38 194.192 262.156 193.228 259.903 190.451C256.824 188.637 253.773 181.013 250.666 178.547C248.157 174.438 271.821 148.675 286.561 151.169C288.494 151.22 290.412 151.525 292.264 152.076C292.479 152.144 292.689 152.23 292.891 152.331C298.28 153.068 303.64 154.4 308.943 155.562C311.009 155.942 312.853 157.086 314.103 158.765C321.459 163.555 317.468 177.13 307.403 174.92H307.261Z" fill="#D98B43"/>
</g>
<path d="M225.918 191.018C226.602 191.726 227.286 192.435 227.999 193.115L230.195 192.208C236.296 189.714 241.77 185.916 247.9 183.422L253.602 181.126C253.405 180.906 253.185 180.707 252.947 180.531C250.438 176.393 274.102 150.659 288.842 153.153C290.776 153.19 292.696 153.495 294.545 154.06L295.143 154.287C298.223 154.741 301.302 155.364 304.381 156.016C306.947 152.785 309.484 149.441 312.279 146.295C316.637 140.835 321.485 135.779 326.762 131.189C325.444 129.321 324.016 127.532 322.486 125.832C316.27 119.087 272.762 120.447 251.692 136.007C244.507 141.307 240.288 149.101 234.585 154.911C222.668 167.267 218.049 178.632 218.419 188.552C219.776 188.222 221.199 188.278 222.525 188.714C223.851 189.15 225.027 189.948 225.918 191.018Z" fill="#822A00"/>
<path d="M334.404 173.843C333.948 170.697 330.213 165.199 330.697 162.223C331.182 159.247 335.059 156.554 336.4 154.032C338.937 149.582 336.4 144.368 334.831 139.861C328.644 122.12 314.874 109.876 283.083 111.747C266.632 112.682 234.614 120.816 217.964 151.425C207.985 169.733 210.75 182.827 219.731 195.552C223.124 200.37 233.16 208.561 240.345 207.824C243.852 207.427 245.62 205.5 249.526 206.294C252.467 206.967 255.216 208.295 257.566 210.176C263.867 214.739 268.258 213.804 275.072 210.176C278.835 208.108 280.289 206.747 284.595 207.682C287.684 208.518 290.961 208.349 293.946 207.201C300.675 204.366 299.392 194.249 308.886 195.864C312.336 196.403 315.7 197.309 318.152 194.164C320.604 191.018 317.81 187.872 319.464 184.726C322.971 178.151 336.057 184.896 334.404 173.843ZM250.695 158.453C262.755 133.116 285.992 144.651 288.187 149.271C296.883 167.268 238.777 183.621 250.695 158.453Z" fill="#A73D22"/>
<g style="mix-blend-mode:screen" opacity="0.75">
<path d="M243.766 159.587C244.76 151.574 247.695 143.92 252.319 137.282C254.699 133.98 257.905 131.353 261.621 129.663C265.337 127.972 269.433 127.277 273.503 127.646C284.223 129.205 292.007 140.003 302.813 140.967C305.028 141.228 307.273 140.935 309.345 140.113C311.416 139.291 313.248 137.967 314.673 136.262C316.029 134.504 316.71 132.323 316.595 130.111C316.48 127.898 315.576 125.799 314.046 124.189C312.602 123.004 310.935 122.117 309.142 121.581C294.091 116.137 277.595 116.113 262.528 121.515C247.461 126.916 234.778 137.401 226.688 151.141C223.539 155.685 222.077 161.175 222.553 166.672C223.466 172.057 228.683 176.989 233.958 175.855C235.587 175.394 237.088 174.566 238.344 173.436C239.6 172.306 240.577 170.903 241.2 169.337C242.472 166.21 243.334 162.933 243.766 159.587Z" fill="#B1523A"/>
</g>
<g style="mix-blend-mode:screen" opacity="0.75">
<path d="M284.451 175.373C274.529 179.993 263.039 179.681 252.119 180.616C249.437 180.735 246.799 181.34 244.336 182.402C243.111 182.948 242.046 183.793 241.238 184.858C240.431 185.924 239.907 187.175 239.717 188.495C239.375 193.115 244.393 196.346 248.955 197.281C258.135 199.123 267.544 196.091 276.354 192.945C284.903 190.277 293.047 186.463 300.56 181.608C308.112 176.642 313.491 169.017 315.614 160.267C316.236 157.71 316.077 155.026 315.158 152.558C314.103 150.149 311.594 147.655 309.056 148.364C299.933 150.801 300.56 167.891 284.451 175.373Z" fill="#B1523A"/>
</g>
<path d="M299.818 122.998C298.959 122.945 298.104 123.153 297.367 123.594L292.12 126.059L293.632 128.723C296.242 127.009 299.261 126.012 302.384 125.832C301.814 124.614 301.102 123.31 299.818 122.998Z" fill="#CC3131"/>
<path d="M328.672 145.841C327.814 145.761 326.954 145.959 326.22 146.408L320.974 148.874L322.485 151.538C325.078 149.789 328.085 148.744 331.209 148.506C330.668 147.372 329.955 146.068 328.672 145.841Z" fill="#CC3131"/>
<path d="M326.734 155.733L320.832 153.834C318.253 156.761 315.501 159.534 312.592 162.138C315.168 162.562 317.559 163.735 319.463 165.51C321.457 161.956 323.9 158.67 326.734 155.733Z" fill="#EAD4AF"/>
<path d="M232.276 172.284L226.374 170.413C223.802 173.338 221.05 176.102 218.134 178.689C220.713 179.092 223.115 180.246 225.034 182.005C227.029 178.476 229.462 175.21 232.276 172.284Z" fill="#EAD4AF"/>
<path d="M291.665 184.244C290.841 183.812 289.913 183.615 288.985 183.677H283.624C283.168 185.576 282.684 187.447 282.199 189.346C285.837 188.214 289.666 187.819 293.461 188.184C293.47 187.436 293.314 186.696 293.003 186.015C292.693 185.335 292.236 184.73 291.665 184.244Z" fill="#FFCC00"/>
<path d="M305.264 149.582C304.388 149.126 303.398 148.929 302.413 149.016H297.081L295.627 154.684C299.243 153.588 303.045 153.231 306.804 153.635C306.856 152.889 306.746 152.141 306.48 151.441C306.214 150.742 305.799 150.108 305.264 149.582Z" fill="#FFCC00"/>
<path d="M234.3 157.291C234.3 158.879 234.557 160.466 234.671 162.081L245.676 159.644C245.052 158.45 244.813 157.094 244.992 155.761C241.496 156.662 237.91 157.175 234.3 157.291Z" fill="#14B661"/>
<path d="M252.547 134.533L243.709 138.303C243.368 139.79 243.301 141.326 243.509 142.837C246.709 140.895 250.19 139.452 253.83 138.558C253.029 137.364 252.584 135.968 252.547 134.533Z" fill="#CC3131"/>
<path d="M267.801 135.412L272.163 133.541C271.441 133.135 270.813 132.582 270.322 131.918C269.83 131.253 269.486 130.493 269.312 129.687C269.004 128.09 268.242 126.615 267.116 125.435L263.781 126.172C265.149 129.262 266.432 132.322 267.801 135.412Z" fill="#FFCC00"/>
<path d="M243.709 173.219L248.099 171.349C247.37 170.952 246.737 170.401 246.245 169.735C245.752 169.069 245.412 168.305 245.248 167.494C244.94 165.898 244.178 164.422 243.053 163.243L239.717 163.98L243.709 173.219Z" fill="#FFCC00"/>
<path d="M288.985 135.015L286.134 133.541L279.776 138.473L284.509 140.57L288.985 135.015Z" fill="#EAD4AF"/>
<path d="M260.131 196.091L257.28 194.617L250.922 199.52L255.684 201.617L260.131 196.091Z" fill="#EAD4AF"/>
<path d="M306.547 135.724C306.475 135.303 306.284 134.912 305.996 134.595C305.709 134.279 305.336 134.051 304.922 133.938C304.505 133.826 304.064 133.851 303.663 134.009C303.262 134.168 302.923 134.451 302.698 134.817C302.569 135.071 302.464 135.337 302.384 135.61C301.644 138.284 301.585 141.099 302.213 143.801C303.57 143.158 305.091 142.941 306.576 143.177C305.966 141.756 305.817 140.181 306.148 138.671C306.487 137.727 306.623 136.723 306.547 135.724Z" fill="#14B661"/>
<path d="M285.821 192.095C285.734 191.676 285.535 191.288 285.243 190.974C284.952 190.659 284.58 190.429 284.167 190.309C283.752 190.211 283.316 190.246 282.921 190.408C282.527 190.571 282.195 190.854 281.972 191.216C281.81 191.454 281.703 191.725 281.658 192.01C280.917 194.683 280.859 197.498 281.487 200.2C282.833 199.524 284.359 199.286 285.849 199.52C285.24 198.089 285.09 196.505 285.421 194.985C285.743 194.057 285.879 193.075 285.821 192.095Z" fill="#14B661"/>
<path d="M252.092 188.835L256.425 189.487C256.881 186.653 257.338 183.961 257.822 181.183L254.458 182.515C253.688 184.556 252.89 186.71 252.092 188.835Z" fill="#CC3131"/>
<path d="M229.083 185.123C229.328 185.277 229.622 185.338 229.91 185.293L235.355 184.868C235.042 181.56 235.41 178.223 236.439 175.061C234.866 175.883 233.137 176.365 231.364 176.478C230.622 179.001 229.853 181.523 229.111 184.046C228.912 184.414 228.826 184.868 229.083 185.123Z" fill="#FFCC00"/>
<path d="M315.215 177.612C315.329 177.693 315.459 177.75 315.596 177.779C315.734 177.809 315.875 177.81 316.013 177.782L321.459 177.357C321.147 174.055 321.486 170.724 322.457 167.551C320.895 168.375 319.175 168.858 317.41 168.968C316.669 171.49 315.899 174.041 315.129 176.563C315.044 176.847 314.958 177.357 315.215 177.612Z" fill="#FFCC00"/>
<path d="M309.057 182.969C309.034 180.033 309.667 177.129 310.91 174.466H306.519L303.668 182.289L309.057 182.969Z" fill="#14B661"/>
<path d="M266.234 202.666L271.166 202.893C271.509 199.899 272.11 196.941 272.962 194.05C272.7 193.855 272.391 193.732 272.066 193.692C271.741 193.652 271.411 193.698 271.109 193.823L266.234 202.666Z" fill="#6BC3C3"/>
<path d="M221.67 160.182L219.332 167.834L223.694 168.175L225.119 159.672L221.67 160.182Z" fill="#CC3131"/>
<path d="M234.643 145.189C233.676 145.316 232.76 145.698 231.991 146.295L227.8 149.129L230.651 152.615C232.601 150.138 235.194 148.237 238.15 147.117C237.272 146.052 236.017 145.363 234.643 145.189Z" fill="#6BC3C3"/>
<path d="M246.987 181.948C246.02 182.075 245.104 182.457 244.335 183.054L240.144 185.888L242.995 189.374C244.996 186.838 247.659 184.897 250.693 183.762C249.742 182.702 248.413 182.052 246.987 181.948Z" fill="#6BC3C3"/>
<path d="M320.547 140.995C321.013 141.172 321.504 141.277 322.001 141.307C322.369 141.291 322.726 141.18 323.037 140.982C323.347 140.785 323.599 140.51 323.767 140.184C323.935 139.859 324.013 139.495 323.994 139.129C323.974 138.764 323.857 138.41 323.655 138.104C321.177 137.191 318.806 136.013 316.584 134.59C315.415 135.837 314.246 137.084 313.106 138.359L320.547 140.995Z" fill="#6BC3C3"/>
<path d="M298.364 178.122C298.824 178.32 299.318 178.426 299.818 178.434C300.19 178.428 300.553 178.322 300.869 178.126C301.185 177.931 301.441 177.654 301.611 177.326C301.781 176.997 301.858 176.628 301.833 176.259C301.809 175.891 301.684 175.535 301.472 175.232C298.996 174.313 296.626 173.135 294.401 171.717L290.923 175.487L298.364 178.122Z" fill="#6BC3C3"/>
<path d="M286.247 132.152C286.707 132.352 287.2 132.467 287.701 132.493C288.06 132.49 288.413 132.398 288.727 132.225C289.041 132.052 289.306 131.803 289.498 131.501C289.686 131.183 289.785 130.821 289.785 130.452C289.785 130.083 289.686 129.721 289.498 129.403C286.973 128.47 284.555 127.273 282.284 125.832L278.806 129.517L286.247 132.152Z" fill="#6BC3C3"/>
<path d="M255.028 150.036C255.485 150.24 255.98 150.346 256.482 150.348C256.853 150.34 257.216 150.233 257.531 150.038C257.847 149.844 258.105 149.569 258.278 149.242C258.46 148.923 258.556 148.561 258.556 148.194C258.556 147.826 258.46 147.465 258.278 147.145C255.8 146.232 253.429 145.054 251.207 143.631L247.729 147.4L255.028 150.036Z" fill="#6BC3C3"/>
<path d="M283.596 118.747C281.484 120.055 279.127 120.923 276.667 121.298C276.838 122.545 277.009 123.792 277.152 125.039C279.928 123.526 282.917 122.437 286.019 121.808C284.883 121.093 284.027 120.013 283.596 118.747Z" fill="#14B661"/>
<path d="M264.949 177.244C263.6 177.156 262.285 176.785 261.09 176.155C259.896 175.525 258.85 174.65 258.021 173.588L254.742 177.045C257.8 178.123 260.682 179.641 263.296 181.552C263.894 180.134 264.436 178.689 264.949 177.244Z" fill="#EAD4AF"/>
<path d="M258.763 128.298C257.414 128.207 256.1 127.835 254.906 127.205C253.712 126.575 252.666 125.701 251.834 124.642L248.556 128.071C251.604 129.182 254.483 130.708 257.109 132.606C257.622 131.16 258.193 129.743 258.763 128.298Z" fill="#EAD4AF"/>
<path d="M307.004 190.224C305.656 190.13 304.343 189.756 303.15 189.126C301.956 188.496 300.909 187.625 300.076 186.568L296.797 189.997C299.848 191.102 302.727 192.629 305.35 194.532L307.004 190.224Z" fill="#EAD4AF"/>
<path d="M294.316 169.932C294.536 170.202 294.821 170.414 295.145 170.547C295.468 170.681 295.82 170.732 296.169 170.697C296.519 170.65 296.85 170.512 297.13 170.299C297.411 170.085 297.629 169.802 297.766 169.478C297.594 167.097 297.452 164.717 297.281 162.336C296.078 162.669 294.92 163.145 293.831 163.753C293.247 165.472 293.247 167.334 293.831 169.053C293.963 169.361 294.125 169.656 294.316 169.932Z" fill="#CC3131"/>
<path d="M277.409 173.276C277.153 172.936 276.583 173.021 276.183 173.276L273.104 174.013C272.448 176.649 271.821 179.284 271.165 181.948H275.271C276.012 179.398 276.725 176.819 277.438 174.24C277.513 174.089 277.55 173.922 277.545 173.754C277.54 173.586 277.494 173.422 277.409 173.276Z" fill="#14B661"/>
<path d="M234.272 196.686C237.507 196.472 240.753 196.846 243.852 197.791C244.166 196.034 244.508 194.277 244.85 192.52C242.005 192.773 239.142 192.773 236.297 192.52C235.612 194.022 234.928 195.354 234.272 196.686Z" fill="#14B661"/>
<path d="M197.151 233.764C191.966 237.265 191.488 245.1 187.393 249.816C183.298 254.532 176.361 255.682 173.334 260.921C170.307 266.16 173.065 273.513 173.451 279.929C173.257 286.149 172.153 292.307 170.172 298.21C168.744 304.181 168.204 310.833 171.518 315.725C173.542 318.347 176.266 320.351 179.379 321.508C182.493 322.666 185.872 322.931 189.13 322.273C195.753 320.811 202.049 318.15 207.702 314.422C224.461 305.382 240.445 294.989 255.492 283.348C259.013 280.917 261.975 277.771 264.181 274.117C265.218 272.308 265.711 270.241 265.601 268.162C265.492 266.083 264.784 264.079 263.562 262.388C261.318 259.942 257.687 259.324 255.155 257.178C250.562 253.32 250.079 246.878 244.335 243.711C239.367 241.612 234.008 240.58 228.61 240.682C225.251 240.536 221.934 239.889 218.768 238.764C215.656 237.495 213.03 235.187 209.75 233.77C207.819 232.72 205.653 232.17 203.452 232.169C201.25 232.168 199.084 232.717 197.151 233.764Z" fill="#D2923D"/>
<g style="mix-blend-mode:screen" opacity="0.32">
<path d="M193.852 278.911C203.214 275.28 200.89 269.14 204.695 261.773C206.734 257.48 209.969 253.857 214.018 251.337C218.204 248.524 223.26 247.284 228.282 247.836C233.979 248.864 238.31 252.927 243.841 254.184C246.622 254.753 249.511 254.478 252.132 253.393C249.928 249.893 248.51 245.914 244.394 243.624C239.426 241.525 234.067 240.493 228.67 240.595C225.311 240.449 221.993 239.802 218.827 238.677C215.715 237.407 213.089 235.099 209.809 233.683C207.873 232.657 205.709 232.13 203.516 232.149C201.322 232.167 199.167 232.732 197.249 233.79C192.064 237.291 191.586 245.126 187.491 249.842C183.395 254.558 176.459 255.708 173.432 260.947C170.405 266.186 172.735 272.43 173.411 278.409C179.905 281.182 187.226 281.362 193.852 278.911Z" fill="#A24B27"/>
</g>
<g style="mix-blend-mode:multiply" opacity="0.55">
<path d="M180.196 289.024C185.95 287.389 195.418 285.296 195.409 278.122C191.957 281.605 187.47 283.895 182.611 284.652C179.312 284.856 176.055 283.835 173.471 281.788C173.317 285.128 172.788 288.441 171.893 291.665C174.566 290.966 177.336 289.777 180.196 289.024Z" fill="#B9866E"/>
</g>
<g style="mix-blend-mode:multiply" opacity="0.55">
<path d="M202.387 254.539C203.814 253.564 205.307 252.686 206.854 251.912C210.433 250.824 213.918 249.451 217.276 247.806C219.871 245.729 221.813 242.956 222.87 239.815C221.442 239.575 220.039 239.204 218.68 238.707C217.634 238.249 216.623 237.718 215.654 237.117C214.812 239.736 213.599 242.223 212.051 244.502C209.37 248.323 203.473 250.228 202.387 254.539Z" fill="#B9866E"/>
</g>
<g style="mix-blend-mode:multiply" opacity="0.55">
<path d="M233.86 273.128C228.681 275.19 222.666 273.289 220.353 280.501C219.611 283.519 218.048 286.275 215.835 288.468C215.424 288.84 214.949 289.195 214.507 289.558C221.203 290.335 225.613 281.996 230.424 278.087C233.309 276.241 235.857 273.922 237.96 271.228C236.628 271.934 235.26 272.568 233.86 273.128Z" fill="#B9866E"/>
</g>
<g style="mix-blend-mode:multiply" opacity="0.55">
<path d="M226.307 256.614C226.238 256.824 226.18 257.038 226.135 257.254C228.697 256.298 231.356 255.621 234.065 255.235C239.568 254.258 244.577 251.459 248.277 247.293C247.204 245.78 245.809 244.521 244.191 243.604C241.907 242.439 239.439 241.67 236.895 241.33C236.679 244.151 235.633 246.846 233.885 249.079C231.705 251.933 227.908 253.605 226.307 256.614Z" fill="#B9866E"/>
</g>
<g style="mix-blend-mode:multiply" opacity="0.55">
<path d="M263.37 262.338C263.068 268.229 259.536 273.162 251.061 274.901C242.585 276.639 241.878 285.202 234.793 288.578C227.709 291.954 220.636 289.876 216.283 296.068C214.871 298.087 212.992 299.739 210.804 300.886C208.617 302.033 206.184 302.641 203.711 302.659C198.781 302.761 197.076 309.379 193.567 311.78C191.46 313.228 189.174 314.4 186.764 315.264C178.652 318.093 173.43 314.652 169.26 309.088C169.445 311.488 170.208 313.808 171.485 315.854C173.527 318.458 176.263 320.441 179.382 321.576C182.502 322.711 185.88 322.952 189.131 322.273C195.754 320.812 202.05 318.15 207.703 314.422C224.462 305.382 240.446 294.989 255.493 283.349C259.014 280.918 261.976 277.771 264.182 274.117C265.219 272.308 265.712 270.242 265.602 268.163C265.493 266.084 264.785 264.08 263.563 262.389L263.37 262.338Z" fill="#B9866E"/>
</g>
<path d="M255.345 277.716C254.854 280.194 254.652 282.234 252.318 283.469C249.826 284.811 246.902 285.122 244.18 284.336C243.805 287.668 244.411 289.785 240.836 291.275C238.344 292.313 235.647 292.773 232.949 292.62C232.305 295.023 232.584 296.298 230.242 297.566C227.318 299.219 223.915 299.831 220.594 299.302C218.147 305.209 213.414 308.83 208.325 307.208C207.87 309.064 206.696 310.665 205.059 311.663C201.896 313.416 198.233 314.066 194.656 313.509C191.079 318.739 188.789 321.359 182.913 321.383L227.465 359.562C245.252 355.356 261.601 346.539 274.845 334.008L262.204 275.31C260.302 276.938 257.854 277.797 255.345 277.716Z" fill="#BE4C1B"/>
<path d="M194.695 318.255C203.327 333.073 215.119 345.834 229.241 355.64C229.241 355.64 213.396 324.474 194.695 318.255Z" fill="#8F3300"/>
<path d="M209.692 311.379C209.692 311.379 218.055 337.1 239.369 352.245C239.369 352.245 226.382 319.433 209.692 311.379Z" fill="#8F3300"/>
<path d="M222.818 303.494C227.346 320.091 236.489 335.082 249.197 346.748C249.197 346.748 237.089 313.104 222.818 303.494Z" fill="#8F3300"/>
<path d="M235.286 296.91C235.286 296.91 240.009 324.618 256.666 341.552C256.666 341.552 248.231 309.018 235.286 296.91Z" fill="#8F3300"/>
<path d="M247.177 290.928C248.473 307.319 253.886 323.123 262.921 336.893C262.921 336.893 259.023 307.138 247.177 290.928Z" fill="#8F3300"/>
<path d="M257.253 283.608C257.653 300.508 261.508 317.15 268.581 332.522C268.581 332.522 267.336 298.665 257.253 283.608Z" fill="#8F3300"/>
<g style="mix-blend-mode:multiply" opacity="0.5">
<path d="M245.333 327.297C236.214 329.245 226.71 328.28 218.178 324.538C213.706 322.805 209.268 320.945 204.923 318.868C202.376 317.679 199.956 316.147 197.478 314.702C194.142 319.55 192.072 321.988 186.52 322.097L228.05 357.383C244.555 353.435 259.717 345.217 271.996 333.563L267.828 314.341C261.478 320.383 253.765 324.826 245.333 327.297Z" fill="#9E5838"/>
</g>
<g style="mix-blend-mode:screen" opacity="0.32">
<path d="M229.411 244.395C229.113 244.316 228.801 244.302 228.496 244.351C228.192 244.401 227.901 244.513 227.643 244.682L216.744 249.793C215.099 250.465 213.557 251.362 212.163 252.459C210.74 253.592 209.818 255.231 209.591 257.029C209.492 257.868 209.668 258.717 210.094 259.449C210.521 260.18 211.174 260.755 211.956 261.086C212.727 261.22 213.519 261.144 214.25 260.866C214.981 260.588 215.623 260.119 216.107 259.508C217.113 258.281 217.933 256.914 218.542 255.451C219.18 253.984 220.121 252.666 221.304 251.584C223.836 249.611 227.805 249.872 229.47 246.881C230.232 246.225 230.344 244.779 229.411 244.395Z" fill="#B27B60"/>
</g>
<g style="mix-blend-mode:screen" opacity="0.32">
<path d="M177.391 268.069L176.515 272.881C176.229 273.911 176.248 275.001 176.571 276.019C177.099 276.803 177.914 277.35 178.842 277.544C179.77 277.739 180.738 277.565 181.54 277.059C184.404 275.518 185.575 272.053 187.117 269.133C188.829 266.016 191.238 263.331 194.158 261.284C195.206 260.654 196.181 259.91 197.065 259.068C197.52 258.638 197.871 258.113 198.093 257.53C198.315 256.947 198.402 256.322 198.347 255.701C198.156 254.953 197.725 254.288 197.12 253.805C196.514 253.323 195.766 253.05 194.99 253.028C193.427 253.007 191.881 253.35 190.476 254.03C188.113 254.903 185.847 256.017 183.715 257.354C181.598 258.733 179.891 260.652 178.774 262.91C178.097 264.565 177.632 266.298 177.391 268.069Z" fill="#B27B60"/>
</g>
<g style="mix-blend-mode:screen" opacity="0.32">
<path d="M239.379 267.348C238.112 268.061 236.918 268.894 235.813 269.836C233.123 271.779 229.882 272.82 226.557 272.809C229.641 270.361 232.296 267.423 234.413 264.112C236.537 260.785 239.718 258.258 243.45 256.929C244.434 256.658 245.467 256.615 246.47 256.803C247.473 256.991 248.419 257.405 249.235 258.014C250.012 258.717 250.532 259.658 250.712 260.687C250.892 261.716 250.723 262.776 250.231 263.7C249.644 264.489 248.888 265.14 248.017 265.603C247.146 266.067 246.183 266.334 245.196 266.382C243.218 266.397 241.255 266.723 239.379 267.348Z" fill="#B27B60"/>
</g>
<g style="mix-blend-mode:screen" opacity="0.32">
<path d="M202.297 279.086C202.614 279.644 203.074 280.107 203.631 280.429C204.188 280.751 204.82 280.921 205.465 280.92C206.772 280.911 208.054 280.565 209.186 279.914C213.916 276.943 217.866 272.895 220.707 268.104C221.369 267.181 222.022 265.775 221.225 265.015C220.97 264.798 220.67 264.642 220.346 264.556C220.023 264.47 219.684 264.458 219.355 264.52C213.475 265.554 208.121 268.541 204.172 272.994C203.373 273.853 202.733 274.845 202.281 275.925C202.072 276.427 201.966 276.965 201.968 277.507C201.971 278.05 202.083 278.587 202.297 279.086Z" fill="#B27B60"/>
</g>
<g style="mix-blend-mode:screen" opacity="0.32">
<path d="M186.426 293.727C185.012 294.634 183.503 295.385 181.925 295.967C179.837 296.433 177.825 297.182 175.942 298.193C175.048 298.844 174.343 299.718 173.896 300.727C173.45 301.735 173.279 302.843 173.401 303.938C173.556 305.005 174.003 306.008 174.694 306.839C175.385 307.669 176.292 308.295 177.317 308.646C178.481 308.943 179.696 308.982 180.877 308.761C182.058 308.54 183.175 308.064 184.151 307.366C186.106 305.93 187.884 304.27 189.447 302.419C191.01 300.55 192.915 298.993 195.062 297.83C196.798 297.02 198.818 296.697 200.498 295.837C201.4 295.481 202.192 294.896 202.794 294.14C203.397 293.384 203.789 292.484 203.931 291.53C203.924 290.748 203.685 289.986 203.245 289.339C202.805 288.691 202.182 288.187 201.455 287.889C199.967 287.335 198.329 287.327 196.835 287.867C195.302 288.454 193.845 289.221 192.494 290.151C190.518 291.343 188.468 292.551 186.426 293.727Z" fill="#B27B60"/>
</g>
<path d="M207.422 240.395L206.778 240.224C206.448 239.935 206.055 239.725 205.63 239.613C205.205 239.5 204.759 239.488 204.328 239.576C203.474 239.805 202.681 240.216 202.003 240.78C200.751 241.712 199.673 242.855 198.819 244.158C198.445 244.61 198.199 245.153 198.104 245.731C198.01 246.309 198.071 246.901 198.282 247.448C198.466 247.717 198.714 247.939 199.003 248.093C199.292 248.247 199.615 248.33 199.943 248.333C200.592 248.354 201.238 248.232 201.834 247.976C203.525 247.386 205.064 246.434 206.344 245.189C207.222 244.406 207.809 243.352 208.009 242.197C207.994 241.095 208.497 240.508 207.422 240.395Z" fill="#652700"/>
<path d="M174.95 270.477C175.917 270.733 176.968 270.291 177.795 269.652C178.716 269.039 179.495 268.239 180.082 267.305C180.393 266.823 180.602 266.282 180.694 265.716C180.786 265.15 180.761 264.571 180.618 264.016C180.474 263.491 180.158 263.029 179.721 262.702C179.284 262.375 178.75 262.202 178.203 262.21C178.157 262.168 178.104 262.136 178.046 262.114C177.988 262.093 177.926 262.084 177.864 262.087C177.802 262.09 177.742 262.105 177.686 262.131C177.63 262.157 177.58 262.194 177.539 262.24L176.378 262.447C175.376 263.049 174.577 263.935 174.085 264.991C173.593 266.047 173.429 267.225 173.616 268.374C173.642 268.808 173.779 269.228 174.012 269.596C174.245 269.963 174.568 270.267 174.95 270.477Z" fill="#B27B60"/>
<path d="M233.684 261.551C232.707 261.058 231.624 260.81 230.528 260.832C229.433 260.853 228.359 261.142 227.403 261.674C226.683 262.052 226.079 262.615 225.654 263.304C225.172 263.935 224.959 264.73 225.061 265.515C225.221 266.149 225.588 266.711 226.105 267.115C226.621 267.519 227.258 267.741 227.915 267.746C229.236 267.734 230.528 267.364 231.654 266.677C232.276 266.447 232.84 266.085 233.306 265.615C233.772 265.145 234.128 264.58 234.351 263.958C234.829 262.301 234.797 262.292 233.684 261.551Z" fill="#652700"/>
<path d="M210.556 255.877C209.7 255.665 208.798 255.731 207.982 256.064C207.166 256.398 206.478 256.982 206.02 257.731C205.099 259.277 204.572 261.022 204.484 262.815C204.357 263.309 204.346 263.825 204.452 264.323C204.558 264.821 204.778 265.288 205.095 265.688C206.012 266.514 207.452 266.037 208.628 265.388C210.538 264.168 212.05 262.422 212.978 260.362C213.321 259.808 213.507 259.174 213.517 258.524C213.527 257.874 213.361 257.234 213.036 256.671C212.099 255.531 211.813 256.21 210.556 255.877Z" fill="#652700"/>
<path d="M178.555 300.944C179.164 299.57 179.556 298.111 179.714 296.618C179.811 296.291 179.837 295.947 179.79 295.61C179.744 295.272 179.626 294.948 179.445 294.659C179.303 294.526 179.132 294.426 178.946 294.366C178.76 294.306 178.563 294.287 178.369 294.311C178.175 294.335 177.988 294.401 177.823 294.504C177.657 294.608 177.516 294.746 177.41 294.91L176.665 294.987L176.504 294.944L176.291 295.094C175.411 295.208 174.605 295.643 174.03 296.315C173.464 296.994 172.995 297.747 172.636 298.554C172.273 299.122 172.035 299.762 171.94 300.429C171.844 301.096 171.893 301.775 172.082 302.422C172.405 303.042 172.938 303.528 173.587 303.794C174.236 304.061 174.96 304.089 175.628 303.875C176.297 303.62 176.903 303.226 177.407 302.721C177.912 302.216 178.303 301.61 178.555 300.944Z" fill="#652700"/>
<path d="M193.125 307.373C193.889 307.698 194.725 307.822 195.553 307.735C196.38 307.647 197.171 307.351 197.85 306.873C199.229 305.891 200.421 304.672 201.369 303.275C201.742 302.872 202.032 302.401 202.224 301.888C202.307 301.637 202.32 301.369 202.261 301.112C202.202 300.855 202.074 300.618 201.891 300.427C201.706 300.271 201.489 300.159 201.255 300.097C201.021 300.035 200.776 300.025 200.537 300.069C200.058 300.182 199.585 300.4 199.115 300.482C198.058 300.465 197.008 300.314 195.99 300.032C195.085 299.952 194.176 300.154 193.392 300.611C192.607 301.068 191.985 301.756 191.613 302.58C191.231 303.425 191.174 304.379 191.452 305.263C191.731 306.146 192.326 306.897 193.125 307.373Z" fill="#652700"/>
<path d="M214.003 285.513C214.521 284.787 214.952 284.002 215.286 283.176C215.415 282.941 215.486 282.679 215.491 282.412C215.497 282.144 215.437 281.879 215.318 281.64C214.881 281.078 213.996 281.29 213.321 281.489L210.001 282.67C209.182 282.918 208.4 283.277 207.679 283.736C206.954 284.214 206.446 284.954 206.263 285.798C206.186 286.394 206.316 286.998 206.63 287.511C206.944 288.025 207.424 288.417 207.991 288.623C208.583 288.82 209.213 288.88 209.832 288.801C210.451 288.721 211.044 288.503 211.567 288.163C212.552 287.453 213.381 286.552 214.003 285.513Z" fill="#652700"/>
<path d="M232.29 285.033C232.097 284.354 231.646 283.776 231.033 283.422C230.419 283.068 229.691 282.964 229.002 283.133C228.286 283.338 227.628 283.709 227.085 284.215C226.541 284.721 226.126 285.349 225.873 286.046C225.355 287.41 225.163 288.875 225.313 290.325C225.285 290.559 225.311 290.796 225.389 291.019C225.467 291.242 225.595 291.444 225.763 291.61C226.019 291.75 226.309 291.82 226.602 291.813C226.894 291.806 227.18 291.723 227.43 291.571C229.229 290.799 230.718 289.455 231.665 287.75C232.193 286.948 232.415 285.984 232.29 285.033Z" fill="#652700"/>
<path d="M253.646 269.888C254.333 269.656 254.957 269.269 255.469 268.757C255.996 268.216 256.298 267.497 256.314 266.744C256.331 265.991 256.06 265.259 255.556 264.697C255.118 264.322 254.601 264.051 254.042 263.904C253.484 263.756 252.9 263.735 252.332 263.844C250.853 264.044 249.442 264.587 248.213 265.43C247.288 266.013 246.566 266.864 246.144 267.868C245.934 268.347 245.877 268.879 245.98 269.391C246.084 269.903 246.343 270.371 246.723 270.733C247.152 270.994 247.635 271.155 248.136 271.205C248.637 271.254 249.143 271.19 249.615 271.018C250.992 270.768 252.341 270.39 253.646 269.888Z" fill="#652700"/>
<path d="M192.638 270.559C191.919 270.341 191.163 270.269 190.416 270.349C189.167 270.728 188.058 271.463 187.226 272.463C186.393 273.462 185.874 274.683 185.732 275.973C185.639 276.438 185.667 276.919 185.811 277.371C185.955 277.823 186.212 278.232 186.558 278.559C186.847 278.769 187.185 278.904 187.541 278.95C187.897 278.996 188.258 278.952 188.593 278.823C189.288 278.567 189.917 278.159 190.432 277.628C191.316 276.791 192.082 275.84 192.709 274.799C193.104 274.183 193.381 273.5 193.526 272.784C193.584 272.432 193.57 272.072 193.485 271.725C193.4 271.378 193.246 271.052 193.031 270.766C192.556 270.091 193.242 270.238 192.638 270.559Z" fill="#652700"/>
<path d="M176.239 270.818C177.78 270.396 179.186 269.586 180.321 268.467C180.868 267.882 181.262 267.173 181.469 266.402C181.675 265.631 181.689 264.822 181.507 264.045C181.285 263.381 180.872 262.797 180.319 262.364C179.766 261.931 179.098 261.669 178.397 261.609L178.107 261.532C177.369 261.768 176.699 262.179 176.155 262.728C175.611 263.277 175.209 263.949 174.983 264.686C174.538 266.167 174.323 267.708 174.345 269.253C174.295 269.538 174.312 269.83 174.393 270.107C174.474 270.384 174.618 270.64 174.814 270.853C175.188 271.261 175.693 271.051 176.239 270.818Z" fill="#652700"/>
<path d="M132.28 239.161C129.229 238.283 126.178 240.715 123.018 240.683C119.858 240.651 117.065 238.324 114.051 238.877C111.038 239.43 109.125 243.029 106.779 245.275C104.278 247.344 101.478 249.026 98.4718 250.263C95.6173 251.732 92.7479 253.894 91.8369 256.998C91.4821 258.767 91.6268 260.6 92.255 262.292C92.8831 263.985 93.9702 265.472 95.396 266.588C98.2769 268.806 101.555 270.46 105.057 271.462C114.438 275.035 124.109 277.807 133.964 279.746C136.099 280.238 138.319 280.243 140.456 279.759C141.517 279.506 142.479 278.944 143.217 278.144C143.955 277.344 144.435 276.344 144.597 275.27C144.718 273.457 143.677 271.808 143.576 270.004C143.415 266.802 145.606 264.335 144.724 261.006C143.794 258.318 142.326 255.844 140.41 253.734C139.314 252.358 138.419 250.835 137.749 249.212C137.134 247.544 137.085 245.764 136.565 244.071C136.305 242.969 135.779 241.946 135.033 241.09C134.286 240.235 133.342 239.573 132.28 239.161Z" fill="#993A12"/>
<g style="mix-blend-mode:screen" opacity="0.32">
<path d="M114.126 253.149C118.748 255.559 120.285 252.59 124.391 251.552C126.725 250.891 129.204 250.936 131.511 251.681C134.026 252.406 136.211 253.973 137.696 256.117C139.201 258.738 139.277 261.893 140.714 264.469C141.445 265.761 142.538 266.813 143.86 267.498C144.386 265.388 145.354 263.426 144.691 260.983C143.76 258.295 142.293 255.822 140.376 253.711C139.281 252.335 138.385 250.813 137.716 249.189C137.101 247.521 137.052 245.741 136.532 244.048C136.269 242.957 135.745 241.944 135.005 241.097C134.264 240.249 133.329 239.591 132.279 239.179C129.227 238.301 126.176 240.733 123.016 240.701C119.856 240.669 117.063 238.342 114.049 238.895C111.036 239.448 109.396 242.497 107.337 244.797C108.463 248.33 110.887 251.312 114.126 253.149Z" fill="#A24B27"/>
</g>
<g style="mix-blend-mode:multiply" opacity="0.55">
<path d="M105.567 251.175C108.196 252.914 112.31 255.992 115.058 253.485C112.458 253.298 109.992 252.268 108.037 250.554C106.81 249.307 106.09 247.653 106.017 245.911C104.64 247.03 103.129 247.976 101.519 248.727C102.901 249.578 104.26 250.316 105.567 251.175Z" fill="#8C3A12"/>
</g>
<g style="mix-blend-mode:multiply" opacity="0.55">
<path d="M126.368 248.163C127.225 248.399 128.067 248.688 128.888 249.029C130.493 250.072 132.178 250.987 133.928 251.766C135.558 252.065 137.24 251.876 138.762 251.223C138.378 250.598 138.043 249.944 137.76 249.268C137.565 248.698 137.406 248.116 137.283 247.526C136.026 248.067 134.698 248.429 133.339 248.602C131.07 248.791 128.339 247.131 126.368 248.163Z" fill="#8C3A12"/>
</g>
<g style="mix-blend-mode:multiply" opacity="0.55">
<path d="M130.25 267.192C127.701 265.829 126.292 262.744 122.731 264.417C121.315 265.189 119.706 265.538 118.096 265.424L117.209 265.312C119.236 268.31 123.987 267.116 127.155 267.662C128.844 268.195 130.617 268.418 132.386 268.32C131.648 267.995 130.934 267.618 130.25 267.192Z" fill="#8C3A12"/>
</g>
<g style="mix-blend-mode:multiply" opacity="0.55">
<path d="M133.786 258.367L133.459 258.472C134.722 259.18 135.903 260.021 136.984 260.982C139.184 262.812 141.948 263.838 144.817 263.888C145.016 262.924 144.992 261.927 144.747 260.972C144.391 259.661 143.823 258.416 143.065 257.286C141.967 258.178 140.612 258.699 139.197 258.774C137.417 258.879 135.495 257.942 133.786 258.367Z" fill="#8C3A12"/>
</g>
<path d="M144.597 275.27C142.301 277.267 139.22 277.628 135.605 274.815C131.991 272.001 128.469 274.812 124.782 273.141C121.299 271.605 119.332 267.847 115.393 268.302C114.09 268.462 112.767 268.298 111.543 267.824C110.32 267.351 109.233 266.584 108.381 265.59C106.638 263.542 103.416 265.294 101.14 264.679C99.8184 264.334 98.5484 263.817 97.3627 263.143C93.3923 260.814 92.9727 257.47 93.7715 253.804C92.8619 254.733 92.1879 255.864 91.8055 257.104C91.4507 258.873 91.5954 260.706 92.2235 262.398C92.8517 264.091 93.9388 265.578 95.3645 266.694C98.2455 268.912 101.524 270.565 105.025 271.568C114.406 275.141 124.077 277.912 133.933 279.852C136.068 280.344 138.287 280.348 140.424 279.865C141.507 279.611 142.486 279.035 143.232 278.215C143.977 277.394 144.453 276.367 144.597 275.27Z" fill="#792C12"/>
<path d="M136.026 277.574C134.924 278.276 134.013 278.929 132.787 278.446C131.372 277.89 130.23 276.808 129.603 275.43C128.219 276.481 127.608 277.519 125.776 276.594C124.476 275.957 123.336 275.039 122.44 273.907C121.251 274.433 120.892 275.083 119.558 274.586C117.862 273.977 116.432 272.802 115.512 271.261C112.312 272.412 109.225 271.804 108.096 269.12C107.651 269.355 107.164 269.498 106.662 269.542C106.16 269.585 105.655 269.528 105.176 269.374C103.355 268.696 101.814 267.434 100.796 265.787C97.4496 266.207 95.5913 266.211 93.5269 263.793L93.6622 296.905C101.691 302.836 111.24 306.396 121.213 307.176L139.449 279.577C138.774 279.483 138.124 279.258 137.536 278.914C136.949 278.571 136.435 278.115 136.026 277.574Z" fill="#BE4C1B"/>
<path d="M98.9617 267.476C95.9245 276.687 94.876 286.43 95.8844 296.07C95.8844 296.07 103.019 277.495 98.9617 267.476Z" fill="#8F3300"/>
<path d="M106.956 271.134C106.956 271.134 99.5111 284.221 100.915 299.026C100.915 299.026 109.666 281.038 106.956 271.134Z" fill="#8F3300"/>
<path d="M114.672 273.66C109.585 281.919 106.827 291.386 106.688 301.069C106.688 301.069 115.93 283.125 114.672 273.66Z" fill="#8F3300"/>
<path d="M121.646 276.385C121.646 276.385 112.387 288.695 111.536 302.283C111.536 302.283 121.493 286.239 121.646 276.385Z" fill="#8F3300"/>
<path d="M128.128 279.066C122.062 285.942 117.788 294.195 115.681 303.097C115.681 303.097 126.069 290.015 128.128 279.066Z" fill="#8F3300"/>
<path d="M134.472 280.523C127.946 287.211 122.843 295.138 119.469 303.83C119.469 303.83 132.4 290.282 134.472 280.523Z" fill="#8F3300"/>
<g style="mix-blend-mode:multiply" opacity="0.5">
<path d="M113.223 291.945C109.137 288.791 106.147 284.444 104.674 279.514C103.798 277.008 102.98 274.473 102.279 271.898C101.881 270.404 101.637 268.855 101.357 267.302C98.253 267.698 96.5237 267.7 94.6015 265.464L94.7252 296.217C102.189 301.722 111.062 305.025 120.328 305.749L126.438 296.498C121.716 296.118 117.169 294.551 113.223 291.945Z" fill="#9E5838"/>
</g>
<g style="mix-blend-mode:screen" opacity="0.32">
<path d="M139.411 255.363C139.257 255.081 139.002 254.867 138.697 254.762L133.061 252.223C132.25 251.807 131.384 251.507 130.489 251.333C130.042 251.241 129.581 251.242 129.135 251.337C128.689 251.432 128.268 251.619 127.899 251.884C127.534 252.158 127.272 252.545 127.153 252.984C127.034 253.422 127.064 253.887 127.24 254.306C127.451 254.647 127.748 254.927 128.1 255.119C128.453 255.31 128.85 255.408 129.253 255.401C130.061 255.376 130.861 255.23 131.625 254.968C132.391 254.708 133.208 254.629 134.009 254.738C135.607 255.049 136.885 256.709 138.501 256.437C139.036 256.285 139.587 255.861 139.411 255.363Z" fill="#B27B60"/>
</g>
<g style="mix-blend-mode:screen" opacity="0.32">
<path d="M112.693 242.894L110.543 244.177C110.037 244.403 109.62 244.787 109.355 245.271C108.946 246.17 109.723 247.146 110.641 247.59C112.314 247.917 114.048 247.754 115.63 247.121C117.412 246.738 119.26 246.776 121.024 247.234C121.604 247.429 122.203 247.566 122.811 247.642C123.125 247.668 123.441 247.624 123.736 247.512C124.03 247.4 124.296 247.224 124.512 246.996C124.725 246.653 124.826 246.253 124.801 245.851C124.777 245.449 124.628 245.064 124.376 244.749C123.852 244.137 123.198 243.649 122.461 243.319C121.329 242.682 120.13 242.169 118.886 241.79C117.638 241.413 116.309 241.391 115.049 241.727C114.215 242.011 113.423 242.403 112.693 242.894Z" fill="#B27B60"/>
</g>
<g style="mix-blend-mode:screen" opacity="0.32">
<path d="M134.349 267.361C133.644 267.107 132.916 266.923 132.175 266.813C130.456 266.392 128.92 265.429 127.798 264.068C129.778 264.443 131.809 264.476 133.8 264.165C135.803 263.846 137.856 264.234 139.602 265.261C140.054 265.562 140.434 265.96 140.712 266.425C140.99 266.89 141.159 267.411 141.208 267.95C141.238 268.492 141.081 269.028 140.764 269.47C140.447 269.911 139.988 270.233 139.463 270.382C138.953 270.423 138.439 270.347 137.962 270.16C137.486 269.973 137.058 269.681 136.713 269.304C136.019 268.551 135.224 267.897 134.349 267.361Z" fill="#B27B60"/>
</g>
<g style="mix-blend-mode:screen" opacity="0.32">
<path d="M117.014 256.603C116.922 256.925 116.91 257.265 116.981 257.592C117.051 257.92 117.201 258.225 117.418 258.482C117.875 258.999 118.459 259.387 119.114 259.61C121.853 260.472 124.767 260.637 127.587 260.091C128.183 260.038 128.93 259.803 128.949 259.221C128.93 259.043 128.87 258.872 128.775 258.721C128.68 258.569 128.551 258.441 128.398 258.347C126.032 256.364 123.043 255.263 119.948 255.235C119.377 255.198 118.804 255.276 118.263 255.462C117.987 255.555 117.733 255.705 117.518 255.901C117.303 256.097 117.131 256.336 117.014 256.603Z" fill="#B27B60"/>
</g>
<g style="mix-blend-mode:screen" opacity="0.32">
<path d="M105.842 255.36C104.975 255.11 104.137 254.772 103.34 254.351C102.447 253.67 101.467 253.11 100.426 252.685C99.8586 252.541 99.2621 252.556 98.7031 252.73C98.1441 252.903 97.6445 253.227 97.2603 253.666C96.876 254.105 96.6221 254.642 96.5271 255.216C96.432 255.791 96.4995 256.38 96.722 256.918C96.9995 257.487 97.3982 257.988 97.8904 258.388C98.3825 258.788 98.9564 259.076 99.572 259.234C100.815 259.545 102.092 259.706 103.374 259.712C104.659 259.678 105.938 259.901 107.134 260.369C108.057 260.777 108.837 261.442 109.778 261.853C110.225 262.095 110.73 262.211 111.239 262.188C111.748 262.165 112.24 262.004 112.664 261.723C112.969 261.431 113.182 261.059 113.28 260.65C113.378 260.241 113.356 259.812 113.216 259.416C112.92 258.621 112.354 257.955 111.617 257.532C110.882 257.123 110.102 256.798 109.294 256.563L105.842 255.36Z" fill="#B27B60"/>
</g>
<path d="M133.347 245.366L133.246 245.006C133.236 244.781 133.174 244.561 133.066 244.364C132.957 244.166 132.804 243.996 132.618 243.866C132.244 243.613 131.823 243.436 131.379 243.345C130.616 243.181 129.832 243.144 129.057 243.235C128.421 243.32 127.707 243.577 127.557 244.18C127.526 244.346 127.533 244.516 127.575 244.68C127.618 244.843 127.696 244.995 127.804 245.125C128.021 245.384 128.288 245.598 128.588 245.754C129.387 246.186 130.271 246.441 131.179 246.501C131.745 246.592 132.325 246.469 132.804 246.157C133.269 245.832 133.656 245.826 133.347 245.366Z" fill="#652700"/>
<path d="M110.986 242.715C111.117 242.952 111.306 243.153 111.534 243.3C111.763 243.447 112.024 243.535 112.295 243.557C112.842 243.708 113.414 243.743 113.975 243.658C114.256 243.618 114.525 243.518 114.763 243.365C115.002 243.212 115.204 243.01 115.357 242.772C115.505 242.534 115.573 242.257 115.553 241.978C115.532 241.7 115.423 241.435 115.242 241.221C115.241 241.157 115.215 241.095 115.17 241.048C115.125 241.002 115.063 240.974 114.998 240.971L114.514 240.581C113.95 240.39 113.34 240.375 112.767 240.538C112.194 240.701 111.685 241.035 111.308 241.494C111.162 241.658 111.056 241.854 111 242.066C110.945 242.279 110.94 242.501 110.986 242.715Z" fill="#B27B60"/>
<path d="M134.533 263.032C134.387 262.474 134.109 261.958 133.723 261.528C133.336 261.098 132.852 260.765 132.31 260.558C131.941 260.42 131.544 260.37 131.152 260.412C130.954 260.436 130.763 260.499 130.589 260.596C130.416 260.693 130.264 260.824 130.141 260.98C129.977 261.267 129.904 261.597 129.931 261.927C129.958 262.256 130.083 262.57 130.292 262.827C130.744 263.352 131.328 263.747 131.985 263.973C132.286 264.143 132.623 264.241 132.968 264.259C133.314 264.278 133.659 264.215 133.977 264.078C134.602 263.791 134.686 263.71 134.533 263.032Z" fill="#652700"/>
<path d="M128.695 251.838C128.497 251.431 128.171 251.098 127.767 250.889C127.363 250.68 126.902 250.606 126.452 250.678C125.556 250.839 124.715 251.224 124.01 251.797C123.782 251.929 123.586 252.108 123.435 252.323C123.284 252.537 123.181 252.782 123.134 253.04C123.144 253.681 123.807 254.112 124.426 254.299C125.532 254.625 126.709 254.62 127.812 254.287C128.444 254.092 129.122 253.684 129.223 253.038C129.323 252.393 128.943 252.491 128.695 251.838Z" fill="#652700"/>
<path d="M100.279 254.696C101.021 254.428 101.719 254.054 102.352 253.586C102.516 253.506 102.66 253.392 102.776 253.252C102.892 253.112 102.977 252.95 103.026 252.775C103.035 252.672 103.021 252.569 102.983 252.472C102.946 252.376 102.887 252.29 102.81 252.22C102.734 252.15 102.642 252.099 102.542 252.07C102.442 252.041 102.337 252.036 102.235 252.054L101.939 251.779L101.96 251.617L101.833 251.601C101.479 251.29 101.025 251.116 100.553 251.111C100.093 251.122 99.6366 251.2 99.1989 251.342C98.8435 251.396 98.5039 251.526 98.203 251.721C97.902 251.917 97.6466 252.174 97.454 252.476C97.3352 252.822 97.3353 253.197 97.4543 253.543C97.5733 253.889 97.8044 254.186 98.1115 254.387C98.431 254.586 98.789 254.717 99.1624 254.77C99.5358 254.823 99.9162 254.798 100.279 254.696Z" fill="#652700"/>
<path d="M102.777 262.947C102.909 263.374 103.149 263.76 103.473 264.07C103.797 264.379 104.195 264.602 104.63 264.716C105.503 264.919 106.405 264.971 107.296 264.869C107.576 264.868 107.853 264.809 108.109 264.697C108.239 264.645 108.352 264.558 108.434 264.445C108.517 264.333 108.566 264.2 108.576 264.061C108.576 263.929 108.545 263.799 108.487 263.681C108.429 263.563 108.345 263.46 108.24 263.378C108.021 263.223 107.777 263.119 107.56 262.945C107.343 262.772 106.984 261.977 106.659 261.497C106.387 261.105 105.994 260.81 105.54 260.657C105.085 260.504 104.593 260.502 104.137 260.649C103.67 260.805 103.275 261.123 103.025 261.545C102.775 261.967 102.687 262.465 102.777 262.947Z" fill="#652700"/>
<path d="M118.607 263.587C119.067 263.544 119.519 263.441 119.952 263.281C120.223 263.169 120.5 263.021 120.555 262.735C120.61 262.449 120.234 262.073 119.911 261.868L118.294 260.988C117.925 260.744 117.521 260.558 117.096 260.434C116.879 260.369 116.652 260.348 116.427 260.374C116.203 260.399 115.986 260.469 115.79 260.581C115.517 260.775 115.32 261.057 115.232 261.379C115.144 261.701 115.17 262.043 115.306 262.348C115.429 262.645 115.617 262.91 115.858 263.124C116.098 263.338 116.384 263.495 116.694 263.584C117.325 263.713 117.975 263.714 118.607 263.587Z" fill="#652700"/>
<path d="M125.169 270.831C125.356 270.499 125.417 270.111 125.339 269.739C125.262 269.366 125.051 269.034 124.747 268.803C124.43 268.588 124.066 268.451 123.685 268.403C123.304 268.355 122.917 268.398 122.556 268.527C121.842 268.81 121.209 269.265 120.714 269.849C120.612 269.93 120.528 270.032 120.469 270.147C120.41 270.263 120.377 270.39 120.371 270.519C120.399 270.671 120.467 270.812 120.569 270.928C120.671 271.043 120.802 271.13 120.949 271.177C121.865 271.64 122.915 271.772 123.918 271.551C124.165 271.522 124.403 271.443 124.618 271.319C124.833 271.195 125.021 271.029 125.169 270.831Z" fill="#652700"/>
<path d="M138.37 274.047C138.695 274.234 139.057 274.348 139.431 274.382C139.827 274.395 140.211 274.251 140.501 273.983C140.79 273.714 140.961 273.342 140.975 272.949C140.951 272.643 140.863 272.346 140.717 272.076C140.571 271.806 140.37 271.568 140.127 271.38C139.546 270.863 138.849 270.493 138.094 270.301C137.558 270.137 136.982 270.148 136.453 270.332C136.194 270.428 135.972 270.6 135.815 270.825C135.658 271.051 135.574 271.318 135.575 271.593C135.631 271.858 135.742 272.11 135.9 272.331C136.059 272.552 136.262 272.739 136.496 272.879C137.087 273.319 137.714 273.71 138.37 274.047Z" fill="#652700"/>
<path d="M116.938 249.846C116.787 249.481 116.559 249.153 116.27 248.884C115.718 248.532 115.075 248.348 114.42 248.357C113.765 248.366 113.126 248.565 112.585 248.932C112.371 249.061 112.193 249.24 112.067 249.454C111.94 249.668 111.868 249.909 111.858 250.157C111.884 250.345 111.953 250.524 112.061 250.681C112.169 250.837 112.312 250.966 112.479 251.058C112.793 251.182 113.129 251.243 113.468 251.237C114.084 251.307 114.708 251.281 115.317 251.159C115.687 251.106 116.042 250.976 116.359 250.779C116.516 250.678 116.651 250.548 116.756 250.394C116.861 250.241 116.933 250.068 116.969 249.886C117.117 249.594 117.318 249.894 116.938 249.846Z" fill="#652700"/>
<path d="M111.232 243.386C111.93 243.819 112.729 244.064 113.551 244.099C113.962 244.113 114.37 244.023 114.736 243.835C115.101 243.647 115.412 243.369 115.637 243.026C115.809 242.71 115.887 242.353 115.865 241.995C115.842 241.636 115.719 241.291 115.51 240.999L115.376 240.891C115.039 240.681 114.656 240.555 114.26 240.524C113.863 240.493 113.465 240.558 113.1 240.714C112.364 241.035 111.686 241.475 111.094 242.016C110.867 242.206 110.618 242.431 110.636 242.726C110.653 243.021 110.976 243.226 111.232 243.386Z" fill="#652700"/>
<path d="M136.104 383.624C129.847 389.262 118.984 388.772 113.426 382.683C107.868 376.594 106.301 369.723 112.559 364.086C118.816 358.448 124.609 359.801 130.167 365.89C135.724 371.979 142.361 377.987 136.104 383.624Z" fill="#FBD246"/>
<path d="M208.604 173.282C204.091 177.348 197.627 178.496 195.098 175.725C192.57 172.955 192.544 169.21 197.057 165.144C201.57 161.078 204.872 161.094 207.4 163.864C209.929 166.634 213.117 169.216 208.604 173.282Z" fill="#D56C48"/>
<path d="M167.026 278.697C168.006 281.838 167.092 285.265 165.138 285.866C163.185 286.468 161.322 285.621 160.342 282.479C159.362 279.338 160.128 277.726 162.081 277.125C164.035 276.523 166.046 275.556 167.026 278.697Z" fill="#D56C48"/>
<ellipse cx="177.586" cy="218.254" rx="3.6671" ry="3.64328" fill="#A73D22"/>
<path d="M124.339 209.401C122.617 211.223 118.595 209.022 116.511 206.951C114.426 204.88 111.788 200.801 114.826 197.783C117.864 194.765 121.93 198.942 124.015 201.013C126.099 203.084 126.061 207.58 124.339 209.401Z" fill="#E3AB5C"/>
<path d="M13.8729 165.806C13.19 157.235 20.4415 148.786 28.9439 148.118C37.4464 147.449 44.0748 150.486 44.7577 159.058C45.4405 167.629 40.6771 171.451 32.1746 172.12C23.6722 172.789 14.5558 174.377 13.8729 165.806Z" fill="#F89945"/>
<path d="M287.573 44.2751C288.386 47.2913 286.358 50.784 283.366 51.5805C280.374 52.377 277.805 51.7271 276.992 48.7109C276.178 45.6947 277.625 44.0172 280.617 43.2208C283.609 42.4243 286.759 41.2589 287.573 44.2751Z" fill="#FFCC00"/>
</svg>
