<svg width="60" height="60" viewBox="0 0 60 60" fill="none" xmlns="http://www.w3.org/2000/svg">
<rect width="60" height="60" rx="30" fill="#FFEDD4"/>
<path d="M14.375 32.2624V45.6241C14.375 46.0385 14.5396 46.4359 14.8326 46.7289C15.1257 47.022 15.5231 47.1866 15.9375 47.1866H44.0625C44.4769 47.1866 44.8743 47.022 45.1674 46.7289C45.4604 46.4359 45.625 46.0385 45.625 45.6241V32.2627" stroke="#F54A00" stroke-width="3" stroke-linecap="round" stroke-linejoin="round"/>
<path d="M15.5536 12.8125H44.4464C44.786 12.8125 45.1163 12.9231 45.3873 13.1276C45.6584 13.3321 45.8555 13.6193 45.9488 13.9457L48.75 23.75H11.25L14.0512 13.9457C14.1445 13.6193 14.3416 13.3321 14.6127 13.1276C14.8837 12.9231 15.214 12.8125 15.5536 12.8125Z" stroke="#F54A00" stroke-width="3" stroke-linecap="round" stroke-linejoin="round"/>
<path d="M23.75 23.75V26.875C23.75 28.5326 23.0915 30.1223 21.9194 31.2944C20.7473 32.4665 19.1576 33.125 17.5 33.125C15.8424 33.125 14.2527 32.4665 13.0806 31.2944C11.9085 30.1223 11.25 28.5326 11.25 26.875V23.75" stroke="#F54A00" stroke-width="3" stroke-linecap="round" stroke-linejoin="round"/>
<path d="M36.25 23.75V26.875C36.25 28.5326 35.5915 30.1223 34.4194 31.2944C33.2473 32.4665 31.6576 33.125 30 33.125C28.3424 33.125 26.7527 32.4665 25.5806 31.2944C24.4085 30.1223 23.75 28.5326 23.75 26.875V23.75" stroke="#F54A00" stroke-width="3" stroke-linecap="round" stroke-linejoin="round"/>
<path d="M48.75 23.75V26.875C48.75 28.5326 48.0915 30.1223 46.9194 31.2944C45.7473 32.4665 44.1576 33.125 42.5 33.125C40.8424 33.125 39.2527 32.4665 38.0806 31.2944C36.9085 30.1223 36.25 28.5326 36.25 26.875V23.75" stroke="#F54A00" stroke-width="3" stroke-linecap="round" stroke-linejoin="round"/>
</svg>
